<svg width="283" height="274" viewBox="0 0 283 274" fill="none" xmlns="http://www.w3.org/2000/svg">
<g clip-path="url(#clip0_89_3204)">
<path d="M283.001 107.48C282.975 105.644 282.008 103.949 280.442 102.993L263.992 92.9162L280.576 82.0617C282.11 81.0547 283.026 79.3338 282.994 77.4981C282.969 75.6625 282.001 73.9671 280.436 73.011L162.584 0.783985C160.821 -0.293175 158.6 -0.261306 156.869 0.866843L2.41878 101.986C0.885094 102.993 -0.0249351 104.714 0.000520285 106.55C0.0259756 108.385 0.99328 110.081 2.55878 111.037L19.0093 121.114L2.42514 131.968C0.885094 132.975 -0.0249351 134.696 0.000520285 136.532C0.0259756 138.367 0.99328 140.063 2.55878 141.019L19.0093 151.096L2.42514 161.95C0.891458 162.957 -0.0249351 164.678 0.00688413 166.514C0.0323395 168.349 0.999644 170.045 2.56515 171.001L19.0157 181.078L2.43151 191.932C0.897822 192.939 -0.0185712 194.66 0.013248 196.496C0.0387033 198.331 1.00601 200.027 2.57151 200.983L120.436 273.203C121.295 273.726 122.263 273.987 123.224 273.987C124.242 273.987 125.26 273.694 126.151 273.114L280.595 172.001C282.129 170.994 283.045 169.273 283.013 167.438C282.988 165.602 282.02 163.907 280.455 162.951L264.004 152.874L280.589 142.019C282.122 141.012 283.039 139.291 283.007 137.456C282.981 135.62 282.014 133.925 280.449 132.969L263.998 122.892L280.582 112.037C282.116 111.03 283.032 109.309 283.001 107.474V107.48ZM159.886 11.6894L267.657 77.7276L123.115 172.358L15.3437 106.32L159.886 11.6894ZM267.657 167.68L123.115 262.311L15.3437 196.272L29.096 187.266L120.417 243.228C121.276 243.75 122.244 244.012 123.204 244.012C124.223 244.012 125.241 243.718 126.132 243.138L254.09 159.369L267.651 167.68H267.657ZM267.657 137.698L123.115 232.329L15.3437 166.284L29.096 157.278L120.417 213.239C121.276 213.762 122.244 214.023 123.204 214.023C124.223 214.023 125.241 213.73 126.132 213.15L254.09 129.38L267.651 137.692L267.657 137.698ZM123.115 202.34L15.3437 136.302L29.096 127.296L120.417 183.257C121.276 183.78 122.244 184.041 123.204 184.041C124.223 184.041 125.241 183.748 126.132 183.168L254.09 99.3982L267.651 107.71L123.109 202.34H123.115Z" fill="#4551C7"/>
<path d="M160.471 46.8979L212.54 79.2827C213.418 79.8309 214.391 80.0922 215.352 80.0922C217.141 80.0922 218.884 79.1935 219.896 77.5618C221.455 75.0506 220.685 71.749 218.178 70.1874L166.109 37.8026C163.602 36.241 160.305 37.0122 158.746 39.5235C157.187 42.0347 157.957 45.3363 160.464 46.8979H160.471Z" fill="#808DF6"/>
<path d="M118.902 63.8583L188.185 107.678C189.069 108.239 190.056 108.506 191.036 108.506C192.811 108.506 194.542 107.62 195.56 106.008C197.139 103.509 196.394 100.201 193.893 98.6206L124.61 54.8013C122.115 53.2206 118.812 53.9663 117.234 56.4712C115.656 58.9697 116.401 62.2776 118.902 63.8583Z" fill="#808DF6"/>
<path d="M156.391 130.355C158.167 130.355 159.898 129.469 160.916 127.857C162.494 125.358 161.75 122.05 159.249 120.47L89.9654 76.6504C87.4707 75.0697 84.1679 75.8154 82.5897 78.3203C81.0115 80.8188 81.756 84.1268 84.257 85.7075L153.54 129.527C154.425 130.088 155.411 130.355 156.391 130.355Z" fill="#808DF6"/>
<path d="M127.131 148.846C128.709 146.347 127.964 143.039 125.463 141.458L108.364 130.642C105.869 129.062 102.566 129.807 100.988 132.312C99.4099 134.811 100.154 138.119 102.655 139.699L119.755 150.515C120.64 151.076 121.626 151.344 122.606 151.344C124.382 151.344 126.113 150.458 127.131 148.846Z" fill="#808DF6"/>
</g>
<defs>
<clipPath id="clip0_89_3204">
<rect width="283" height="274" fill="white"/>
</clipPath>
</defs>
</svg>
