<svg width="107" height="117" viewBox="0 0 107 117" fill="none" xmlns="http://www.w3.org/2000/svg">
<path d="M71.352 72.9824C71.352 72.9824 45.1905 116.946 63.2869 116.946H106.471C108.431 116.946 98.3631 107.966 96.6578 108.691C95.0921 109.357 93.6053 111.951 93.6053 111.951C93.6053 111.951 85.6313 103.225 76.5224 102.826C76.5224 102.826 102.162 94.9641 97.0644 73.4057L71.352 72.9884V72.9824Z" fill="#F0786A"/>
<path d="M76.5223 102.819C76.5223 102.819 73.6944 102.42 71.7039 102.819L83.2827 99.82C81.2315 101.078 78.9862 102.088 76.5284 102.819H76.5223Z" fill="#F0786A"/>
<path d="M42.4535 105.535C41.6403 105.535 41.2823 108.401 38.9156 111.878C36.8887 114.847 34.9407 115.597 34.5826 115.791C33.8726 116.172 34.1153 116.94 34.9224 116.94H42.8905C43.8675 116.94 44.7474 116.154 44.5472 115.138C44.0071 112.386 43.467 105.535 42.4475 105.535H42.4535Z" fill="#F79885"/>
<path d="M80.4305 72.0995C80.4305 72.0995 86.0925 102.819 67.3225 96.5061C53.3648 91.8074 45.682 84.3875 45.682 84.3875C45.682 84.3875 50.2759 106.883 42.0106 114.11C42.0106 114.11 31.8882 98.151 28.2896 83.3413C26.3598 75.4134 26.3052 67.7999 30.6745 63.1556C33.6117 60.0413 41.2702 61.8736 50.458 64.6553C55.768 66.2458 61.5877 68.1869 67.3225 69.6503C82.5485 73.569 80.4305 72.0995 80.4305 72.0995Z" fill="#F79885"/>
<path d="M45.682 84.3814L38.7943 78.5096C38.7943 78.5096 45.3665 88.415 46.8229 93.6035C46.8229 93.6035 46.4467 87.3567 45.682 84.3814Z" fill="#F0786A"/>
<path d="M50.458 64.6553C50.458 64.6553 31.597 65.3508 28.2896 83.3413C26.3598 75.4134 26.3052 67.7999 30.6745 63.1556C33.6117 60.0413 41.2702 61.8736 50.458 64.6553Z" fill="#F0786A"/>
<path d="M91.9061 52.579C91.9061 52.579 95.6383 62.0369 97.0644 73.3997C97.0644 73.3997 71.5644 82.6942 56.3262 64.9637L51.4957 54.8649C51.4957 54.8649 78.5857 25.4269 91.9061 52.579Z" fill="#F79885"/>
<path d="M53.1645 21.0003C54.0627 19.3797 56.1078 14.4088 54.6999 10.5023C53.2859 6.59581 43.7765 7.44847 41.7557 9.27473C38.0903 12.5886 40.7726 26.7513 43.0665 27.3802C43.6551 27.5434 49.2018 28.1421 53.1645 21.0003Z" fill="#F79885"/>
<path d="M43.0726 27.3862C43.3578 27.4648 44.8385 27.6523 46.738 26.975L45.9976 23.7942C44.8992 27.0415 43.0726 27.3862 43.0726 27.3862Z" fill="#F0786A"/>
<path d="M53.0857 19.6276C54.8698 23.6551 60.7867 26.461 60.7867 26.461C61.9943 31.2685 53.9717 34.2498 50.8221 35.7979C50.8221 35.7979 49.9179 31.6858 48.4493 28.8799C44.0678 20.5226 49.8512 12.3346 53.0857 19.6276Z" fill="#F79885"/>
<path d="M39.9715 13.4957C39.9715 13.4957 30.6199 14.8321 32.4101 10.5084C33.2779 8.40998 36.3183 7.261 39.213 6.63814C27.4643 -5.92197 45.1784 5.90037 45.1784 5.90037C45.1784 5.90037 51.3561 -0.630646 54.2873 0.433667C57.2184 1.49193 53.4983 6.8256 53.4983 6.8256C53.4983 6.8256 65.5201 7.55126 56.126 11.6573C62.0974 12.4616 63.9969 21.8651 55.2096 17.4687C60.4043 20.2686 66.1027 31.9095 55.8954 21.8409C61.6362 32.9618 54.9548 33.5604 49.3656 21.5567C47.9517 35.302 42.5749 31.976 44.8567 20.2323C36.8766 33.8749 39.9655 13.5078 39.9655 13.5078L39.9715 13.4957Z" fill="#51192B"/>
<path d="M95.2742 57.1507C95.2742 57.1507 91.9061 34.5764 75.6849 28.1723C59.4576 21.7683 45.585 27.3439 40.633 34.8787C34.8194 43.7319 50.8889 55.3244 52.7276 65.0847C53.2556 65.3205 53.7472 65.3689 54.2873 65.1633C54.6028 63.2705 54.9184 61.3777 55.2279 59.4849C56.4841 59.8054 57.2608 61.1903 58.5292 61.4624C60.107 61.801 61.4785 60.2348 61.9458 58.6927C62.413 57.1507 62.413 55.4393 63.2505 54.0606C64.5067 53.2744 65.7143 55.1491 67.0615 55.7659C68.518 56.4311 70.2718 55.4514 71.1335 54.1089C71.9952 52.7665 72.2441 51.1337 72.7356 49.6158C73.2272 48.098 74.1132 46.5378 75.6242 46.0117C77.724 47.203 77.2931 50.2992 78.2034 52.5246C79.229 55.0463 81.9659 56.3464 84.4722 57.4228C84.9213 55.3728 86.0136 52.8088 88.1133 52.9781C89.3149 53.0749 90.2009 54.1029 90.8684 55.1007C91.536 56.0985 92.1914 57.2172 93.2958 57.6889C94.4003 58.1606 95.3713 58.3481 95.2681 57.1507H95.2742Z" fill="#FFB157"/>
<path d="M54.5057 66.3667C65.8842 62.4965 88.6291 62.442 98.6422 67.0682C99.7892 67.5943 101.246 69.2029 98.6422 72.0995C98.6422 72.0995 104.456 90.2472 82.4149 102.148C80.7521 102.094 79.0954 101.791 77.4326 101.737C77.1899 101.731 76.9229 101.713 76.7287 101.568C76.1765 101.144 76.6862 100.292 77.1717 99.7898C77.6511 99.2878 78.0091 98.2961 77.3537 98.0482C77.0564 97.9333 76.7287 98.0905 76.4495 98.2417C74.3316 99.3423 72.0377 100.11 69.6831 100.497C69.8834 99.3907 70.0836 98.284 70.2839 97.1834C70.3749 96.6815 70.4599 96.1252 70.205 95.6837C69.8045 94.9762 68.8153 94.9278 68.0082 94.9943C65.2895 95.2241 62.6011 95.8349 60.0524 96.8024C59.2999 97.0867 58.5352 97.4072 57.7281 97.4435C56.921 97.4797 56.041 97.1653 55.6527 96.4578C55.325 95.853 55.3735 95.0306 54.8516 94.5892C53.9838 93.8574 52.4121 94.8371 51.5928 94.0509C51.1498 93.6276 51.2105 92.8717 51.5564 92.3638C51.9023 91.8618 52.4606 91.5474 53.0007 91.2571C54.8212 90.2654 56.6418 89.2736 58.5109 88.3726C58.0436 87.6409 57.5824 86.9152 57.1152 86.1835C56.9392 85.9053 56.751 85.5788 56.836 85.2583C56.9452 84.8712 57.3822 84.7019 57.7645 84.581C60.0463 83.8795 62.328 83.1841 64.6098 82.4826C65.3016 82.2709 66.1634 81.7871 65.9813 81.0857C65.8963 80.7531 65.5868 80.5293 65.2955 80.3419C64.2093 79.6646 63.032 79.1385 61.8061 78.7817C61.879 78.0197 62.5101 77.4452 62.9834 76.8405C63.4568 76.2358 63.7784 75.3106 63.2626 74.7421C62.3827 73.7746 60.2769 75.0384 59.6215 73.9015C59.4637 73.6234 59.4698 73.2847 59.4455 72.9642C59.2392 70.1099 56.8785 67.9753 54.4996 66.3667H54.5057Z" fill="#FFB157"/>
<path d="M1.74579 31.6556L0.968994 32.7743L2.42546 37.0739L5.52648 35.4532L5.05919 34.0805L1.74579 31.6556Z" fill="#51192B"/>
<path d="M49.8147 45.8666C49.8147 52.4339 40.1293 67.8906 32.5922 70.4244C16.6198 75.7943 3.58454 49.2046 7.81431 35.8463C7.81431 35.8463 18.6406 46.6708 27.0334 55.4454C27.0334 55.4454 38.7942 35.6467 42.8055 35.0662C47.8363 34.3345 49.8086 43.3691 49.8086 45.8666H49.8147Z" fill="#F79885"/>
<path d="M9.88364 41.5186C9.41636 41.8028 7.83247 40.3092 7.83247 40.3092C7.83247 40.3092 3.20827 41.3735 1.75182 40.6659C0.295365 39.9584 1.39983 35.9188 1.39983 35.9188C1.39983 35.9188 0.216456 34.9997 0.36817 34.5461C0.519884 34.0865 2.66207 34.1047 4.30057 34.4615C4.30057 34.4615 3.71802 32.6171 4.66471 32.5264C5.34439 32.4598 5.44149 34.2559 8.35439 36.1184C9.26468 36.832 10.8728 40.9199 9.88364 41.5247V41.5186Z" fill="#F79885"/>
<path d="M98.6422 72.7889C98.5451 72.7889 98.442 72.7647 98.3509 72.7223C98.1931 72.6498 82.3906 65.3991 55.7012 66.6811C55.3492 66.7416 54.9972 66.409 54.979 66.028C54.9608 65.6471 55.2521 65.3266 55.6344 65.3084C82.688 63.9962 98.7757 71.404 98.9335 71.4766C99.2794 71.6399 99.4251 72.045 99.2612 72.3897C99.1459 72.6377 98.8971 72.7828 98.6361 72.7828L98.6422 72.7889Z" fill="#AB4B38"/>
</svg>
