<svg width="95" height="191" viewBox="0 0 95 191" fill="none" xmlns="http://www.w3.org/2000/svg">
<path d="M3.92234 9.14601L2.80573 9.98053V14.6309L6.34976 14.0745V12.5869L3.92234 9.14601Z" fill="#51192B"/>
<path d="M36.6864 80.83L38.9621 119.871L42.9552 188.144C42.9552 188.144 49.758 185.949 55.8387 163.556C58.1812 154.933 59.5162 139.289 60.1231 120.972C60.1231 120.972 61.3247 103.483 61.0758 97.5566C60.8513 92.0839 60.645 86.5567 60.6389 81.2472L36.6803 80.836L36.6864 80.83Z" fill="#F79885"/>
<path d="M88.5906 164.977C89.6405 146.328 77.7947 92.0294 75.6161 82.1543L53.0411 80.7634C53.3991 91.467 61.3914 121.365 61.3914 121.365C67.023 140.649 74.5662 163.145 81.0474 188.144C81.0474 188.144 87.7228 180.337 88.5906 164.971V164.977Z" fill="#F79885"/>
<path d="M46.566 181.305C46.2322 181.166 44.7697 184.619 42.5304 186.439C40.103 188.41 36.1827 189.747 35.8853 189.91C35.2906 190.231 35.4909 190.872 36.1705 190.872H46.2504C47.0696 190.872 47.7918 190.218 47.6401 189.36C47.4884 188.477 47.2214 188.211 47.1303 187.104C47.1 186.735 46.8572 181.42 46.5599 181.305H46.566Z" fill="#F79885"/>
<path d="M82.5707 181.305C81.8849 181.305 81.5936 183.712 79.6032 186.626C77.904 189.118 76.2715 189.747 75.9681 189.91C75.3734 190.231 75.5736 190.872 76.2533 190.872H82.9348C83.754 190.872 84.4944 190.212 84.3245 189.36C83.8693 187.05 83.4203 181.305 82.5646 181.305H82.5707Z" fill="#F79885"/>
<path d="M80.0401 39.8236C85.8659 42.9622 94.0948 64.9318 94.1251 72.6783C94.1798 86.8228 57.192 84.6518 46.2565 76.3731C46.2565 76.3731 68.0061 69.7938 78.8628 64.9922C78.8628 64.9922 68.8132 51.7125 64.4803 39.606C62.6112 34.3811 77.825 38.7714 80.0401 39.8236Z" fill="#F0786A"/>
<path d="M36.6864 80.8299C36.6864 80.8299 35.0479 41.148 43.1615 35.01C51.2812 28.8721 79.2815 36.1288 82.0791 41.9825C84.8767 47.8423 75.6161 82.1543 75.6161 82.1543C75.6161 82.1543 64.0859 86.472 36.6864 80.8299Z" fill="#F79885"/>
<path d="M69.5658 24.8991C71.0768 23.6836 75.0275 19.6803 75.2034 15.3444C75.3794 11.0086 65.8457 8.09379 63.1695 9.0674C58.3086 10.8332 55.2986 25.5884 57.2709 27.1003C57.7806 27.4873 62.9086 30.2509 69.5658 24.893V24.8991Z" fill="#F79885"/>
<path d="M57.2709 27.1063C57.5136 27.2998 58.873 28.0557 60.9788 28.1464L61.5249 24.7781C59.1764 27.4873 57.2709 27.1063 57.2709 27.1063Z" fill="#F0786A"/>
<path d="M62.5263 14.1229C62.5263 14.1229 60.6753 19.8254 57.5622 18.5555C57.5622 18.5555 49.9583 23.992 56.1057 22.849C56.1057 22.849 50.5894 29.4224 56.4698 26.4653C52.1733 33.8127 59.9714 32.1316 62.4777 28.3641C62.4777 28.3641 55.9176 28.0013 63.1149 16.699L62.5263 14.1168V14.1229Z" fill="#51192B"/>
<path d="M70.1301 25.1107C68.2367 29.3075 70.1847 35.8506 70.1847 35.8506C67.284 40.1441 59.3524 36.026 55.9479 34.6653C55.9479 34.6653 58.521 31.0914 59.6801 27.9952C63.1331 18.7611 73.5588 17.5154 70.1301 25.1168V25.1107Z" fill="#F79885"/>
<path d="M62.5263 14.1229C62.5263 14.1229 56.6641 5.14878 60.1049 1.67162C63.5519 -1.80554 67.8181 7.15042 67.8181 7.15042C67.8181 7.15042 76.3808 3.26205 78.7961 5.43906C81.2113 7.61606 75.5008 11.3109 75.5008 11.3109C75.5008 11.3109 86.843 16.7413 76.132 17.0195C81.5937 20.1459 79.7003 29.9908 72.946 22.2806C73.4011 28.9507 70.6399 36.6851 66.5012 25.1833C59.1218 37.5257 62.5202 14.1229 62.5202 14.1229H62.5263Z" fill="#51192B"/>
<path d="M84.1364 101.415C83.3899 94.3455 81.2599 85.2928 76.4718 82.6804C76.4718 82.6804 80.3921 81.9789 79.1783 80.3643C77.9646 78.7497 42.6821 74.2082 39.3566 74.1236C36.031 74.0389 29.7622 73.8998 35.0965 79.04C30.2902 88.4071 31.4189 99.3103 33.464 106.029C34.3925 106.029 35.0115 107.178 35.9157 106.966C36.4861 106.827 36.6561 106.119 36.741 105.545C37.1233 103.09 37.9972 100.707 39.308 98.5907C39.569 98.1734 39.8603 97.7501 40.3033 97.5385C41.4138 97.0124 42.6093 98.0767 43.2526 99.1228C43.8958 100.163 44.6058 101.433 45.8317 101.536C47.0636 101.639 48.0103 100.453 48.4412 99.2982C48.872 98.1492 49.0723 96.843 49.9219 95.9541C51.1053 99.8304 52.938 103.507 55.3108 106.791C56.6216 108.599 58.5817 110.467 60.7603 109.96C61.4582 109.796 62.1743 109.397 62.8358 109.657C63.2484 109.82 63.5276 110.207 63.7825 110.57C65.0144 112.348 66.2463 114.126 67.4721 115.91C68.17 116.92 69.0075 118.027 70.2333 118.202C71.4592 118.383 72.6304 117.513 73.2615 116.454C73.8926 115.39 74.1293 114.15 74.4874 112.971C75.1488 110.818 76.2715 108.804 77.7583 107.111C78.8749 107.746 79.7973 108.72 80.3617 109.869C80.9382 107.752 81.5208 105.642 82.0973 103.525C82.4493 102.243 82.7891 101.378 84.1242 101.433L84.1364 101.415Z" fill="#9C2622"/>
<path d="M76.4778 83.273C76.4778 83.273 76.4414 83.273 76.4232 83.273L35.0479 79.6326C34.7202 79.6024 34.4775 79.3121 34.5017 78.9856C34.5321 78.659 34.8355 78.4111 35.1511 78.4413L76.5264 82.0817C76.8541 82.112 77.0968 82.4022 77.0726 82.7288C77.0422 83.0372 76.7813 83.273 76.4778 83.273Z" fill="#51192B"/>
<path d="M49.9886 46.5482C49.9886 46.5482 45.9834 60.0275 36.6864 64.5387L37.3539 54.0105L49.9826 46.5482H49.9886Z" fill="#F0786A"/>
<path d="M50.3224 45.5504C48.1924 53.9439 30.3266 58.2072 22.1704 58.2072C4.88116 58.2072 -0.0525584 26.8039 8.44947 15.2053C8.44947 15.2053 16.6238 31.8413 21.8913 43.1073C21.8913 43.1073 34.8658 38.3239 47.5309 33.5527C52.9986 31.4966 51.3905 43.2161 50.3224 45.5504Z" fill="#F79885"/>
<path d="M8.58903 21.3917C8.03679 21.5187 6.99301 19.5473 6.99301 19.5473C6.99301 19.5473 2.15031 19.0695 0.966941 17.9085C-0.216425 16.7474 2.18672 13.1795 2.18672 13.1795C2.18672 13.1795 1.33713 11.9036 1.63448 11.5044C1.93184 11.1114 4.00729 11.8249 5.48801 12.7078C5.48801 12.7078 5.52442 10.7243 6.47718 10.9481C7.15686 11.1053 6.66531 12.8832 8.88033 15.6407C9.52966 16.6325 9.74812 21.1316 8.58903 21.3977V21.3917Z" fill="#F79885"/>
</svg>
