<svg width="26" height="29" viewBox="0 0 26 29" fill="none" xmlns="http://www.w3.org/2000/svg">
<g clip-path="url(#clip0_58_635)">
<path d="M21.6729 20.5003C20.5771 20.5003 19.5929 20.9309 18.85 21.6236L8.54286 15.5765C8.61714 15.2395 8.67286 14.9025 8.67286 14.5655C8.67286 14.2285 8.61714 13.8728 8.54286 13.5545L18.72 7.56357C19.5 8.29372 20.5214 8.74304 21.6729 8.74304C24.0686 8.74304 26 6.79598 26 4.38088C26 1.96577 24.0686 0.0187073 21.6729 0.0187073C19.2771 0.0187073 17.3457 1.96577 17.3457 4.38088C17.3457 4.73659 17.4014 5.07358 17.4757 5.39185L7.29857 11.3828C6.51857 10.6527 5.49714 10.2033 4.34571 10.2033C1.95 10.2033 0.0185719 12.1504 0.0185719 14.5655C0.0185719 16.9806 1.95 18.9277 4.34571 18.9277C5.47857 18.9277 6.51857 18.4784 7.29857 17.7482L17.5871 23.8141C17.5129 24.1136 17.4757 24.4319 17.4757 24.7689C17.4757 27.1091 19.37 29.0187 21.6914 29.0187C24.0129 29.0187 25.9071 27.1091 25.9071 24.7689C25.9071 22.4286 24.0129 20.519 21.6914 20.519L21.6729 20.5003Z" fill="white"/>
</g>
<defs>
<clipPath id="clip0_58_635">
<rect width="26" height="29" fill="white"/>
</clipPath>
</defs>
</svg>
