<svg width="52" height="52" viewBox="0 0 52 52" fill="none" xmlns="http://www.w3.org/2000/svg">
<circle cx="26" cy="26" r="25" fill="#2ED3CC" stroke="black" stroke-width="2"/>
<path d="M23.0909 32.0227V31.6364C23.0985 30.3106 23.2159 29.2538 23.4432 28.4659C23.678 27.678 24.0189 27.0417 24.4659 26.5568C24.9129 26.072 25.4507 25.6326 26.0795 25.2386C26.5492 24.9356 26.9697 24.6212 27.3409 24.2955C27.7121 23.9697 28.0076 23.6098 28.2273 23.2159C28.447 22.8144 28.5568 22.3674 28.5568 21.875C28.5568 21.3523 28.4318 20.8939 28.1818 20.5C27.9318 20.1061 27.5947 19.803 27.1704 19.5909C26.7538 19.3788 26.2917 19.2727 25.7841 19.2727C25.2917 19.2727 24.8257 19.3826 24.3863 19.6023C23.947 19.8144 23.5871 20.1326 23.3068 20.5568C23.0265 20.9735 22.875 21.4924 22.8523 22.1136H18.2159C18.2538 20.5985 18.6174 19.3485 19.3068 18.3636C19.9962 17.3712 20.9091 16.6326 22.0454 16.1477C23.1818 15.6553 24.4356 15.4091 25.8068 15.4091C27.3144 15.4091 28.6477 15.6591 29.8068 16.1591C30.9659 16.6515 31.875 17.3674 32.5341 18.3068C33.1932 19.2462 33.5227 20.3788 33.5227 21.7045C33.5227 22.5909 33.375 23.3788 33.0795 24.0682C32.7917 24.75 32.3863 25.3561 31.8636 25.8864C31.3409 26.4091 30.7235 26.8826 30.0113 27.3068C29.4129 27.6629 28.9204 28.0341 28.5341 28.4205C28.1553 28.8068 27.8712 29.2538 27.6818 29.7614C27.5 30.2689 27.4053 30.8939 27.3977 31.6364V32.0227H23.0909ZM25.3409 39.2955C24.5833 39.2955 23.9356 39.0303 23.3977 38.5C22.8674 37.9621 22.606 37.3182 22.6136 36.5682C22.606 35.8258 22.8674 35.1894 23.3977 34.6591C23.9356 34.1288 24.5833 33.8636 25.3409 33.8636C26.0606 33.8636 26.6932 34.1288 27.2386 34.6591C27.7841 35.1894 28.0606 35.8258 28.0682 36.5682C28.0606 37.0682 27.928 37.5265 27.6704 37.9432C27.4204 38.3523 27.0909 38.6818 26.6818 38.9318C26.2727 39.1742 25.8257 39.2955 25.3409 39.2955Z" fill="black"/>
</svg>
