<svg width="608" height="318" viewBox="0 0 608 318" fill="none" xmlns="http://www.w3.org/2000/svg">
<path d="M491.773 265.607V211.944L441.003 187.64L438.018 123.14L419.351 102.023L381.271 92.2808L370.044 73.8247C370.044 73.8247 308.102 88.5316 299.163 80.8032C290.224 73.0748 286.45 39.428 286.45 39.428L230.607 34.2213L203.784 49.8474L157.408 44.6407L119.207 96.4958H109.825L105.019 109.159L43.793 135.682L38.568 201.905L56.4884 206.943L54.2491 233.986L5.71895 253.379L0.5 290.902L144.598 297.04L141.612 308.76C141.612 308.76 260.282 322.898 348.027 316.198L352.991 304.448C352.991 304.448 462.656 310.556 526.121 304.448L534.514 298.54L498.497 289.088L491.779 265.607H491.773Z" fill="#CA5C47"/>
<path d="M485.534 289.844C485.534 295.71 406.225 300.469 308.388 300.469C210.551 300.469 131.247 295.71 131.247 289.844C131.247 283.978 210.557 279.219 308.388 279.219C406.219 279.219 485.534 283.978 485.534 289.844Z" fill="#AB4B38"/>
<path d="M289.642 298.673C310.388 298.673 327.206 297.019 327.206 294.978C327.206 292.938 310.388 291.283 289.642 291.283C268.896 291.283 252.078 292.938 252.078 294.978C252.078 297.019 268.896 298.673 289.642 298.673Z" fill="#CA5C47"/>
<path d="M133.183 122.015C135.21 119.56 137.109 116.978 138.863 114.281C140.058 112.442 141.211 110.513 141.764 108.336C142.316 106.159 142.2 103.68 141.005 101.835C138.444 102.241 135.889 102.64 133.328 103.045C133.237 102.495 133.146 101.95 133.049 101.4C137.71 101.303 141.472 97.4149 145.696 95.25C151.728 92.1539 158.689 92.6255 165.352 92.4199C173.186 92.1841 180.997 90.9263 188.564 88.6767C191.228 87.8845 193.965 86.9109 195.962 84.8307C198.498 82.2001 199.894 77.828 203.293 76.939C205.72 76.304 208.147 77.7917 210.277 79.2249C212.48 80.7064 214.683 82.188 216.886 83.6696C217.554 84.1171 218.312 84.7823 218.167 85.6228C218.039 86.3666 217.281 86.7234 216.619 86.929C213.84 87.7757 210.896 87.9934 208.038 87.5459C206.612 87.3282 205.113 86.9532 203.766 87.5156C202.303 88.1324 201.393 89.7047 200.586 91.1802C199.651 92.8916 198.686 94.7179 198.686 96.7135C198.686 98.3946 199.39 99.9911 199.494 101.666C199.803 106.655 195.106 110.114 193.182 114.65C191.465 118.701 191.853 123.938 188.916 127.04C188.103 124.682 188.862 122.076 189.505 119.657C190.761 114.922 191.574 110.048 191.914 105.131C189.341 104.811 186.671 104.502 184.219 105.397C181.221 106.486 178.982 109.207 177.07 111.959C174.091 116.258 171.548 120.927 169.515 125.843C168.835 127.488 167.937 129.405 166.299 129.641C169.539 122.602 172.78 115.563 176.02 108.524C173.824 109.836 171.627 111.148 169.43 112.454C167.239 113.761 165.012 115.085 162.585 115.72C160.157 116.355 157.457 116.228 155.345 114.777C153.986 113.839 152.626 112.321 151.067 112.745C149.483 113.18 148.943 115.297 148.627 117.05C147.316 124.482 145.126 131.727 142.128 138.542C140.884 135.488 142.243 132.011 143.299 128.879C145.047 123.702 145.981 118.205 146.054 112.69C142.637 112.188 139.476 114.752 137.182 117.576C135.301 119.893 133.711 122.469 132.133 125.039C130.943 126.968 129.863 129.296 128.443 131.025C127.563 132.102 126.404 133.777 126.404 131.485C126.404 128.576 131.532 123.999 133.183 122.003V122.015Z" fill="#9C2622"/>
<path d="M206.145 76.1226C206.369 74.8648 206.758 73.5586 207.65 72.7301C207.765 72.6273 207.892 72.5245 208.044 72.5185C208.348 72.5124 208.524 72.8813 208.627 73.1897C208.882 73.9638 209.118 74.8043 208.906 75.5905C208.724 76.2678 208.238 76.7878 207.777 77.2777C207.146 77.9428 206.527 78.6806 205.829 79.2491C205.568 78.3359 205.975 77.0781 206.145 76.1166V76.1226Z" fill="#9C2622"/>
<path d="M198.067 75.784C197.582 75.4393 197.024 74.8769 197.236 74.2843C197.309 74.0726 197.479 73.9093 197.667 73.8186C198.517 73.3953 199.421 74.2601 200.003 75.0583C200.792 76.1408 201.763 77.3381 202.237 78.608C200.798 78.0275 199.372 76.7153 198.067 75.784Z" fill="#9C2622"/>
<path d="M266.272 255.986C266.272 255.986 273.269 260.878 271.309 265.897C269.343 270.916 252.272 283.761 275.241 293.799H304.097C304.097 293.799 328.286 285.599 314.292 259.656C314.292 259.656 315.027 270.299 303.12 274.339C303.12 274.339 324.736 241.666 285.685 230.896C285.685 230.896 295.631 239.948 293.052 246.927C290.473 253.899 284.702 253.506 279.635 262.777C279.635 262.777 275.981 255.738 266.278 255.986H266.272Z" fill="#F3E190"/>
<path d="M311.3 271.993C311.3 271.993 309.31 281.166 293.489 281.759C285.8 286.095 281.298 289.844 281.298 289.844C281.795 282.412 274.179 274.569 274.179 274.569C274.719 278.536 270.453 282.896 270.453 282.896C266.927 280.622 266.381 275.821 266.375 273.093C262.424 279.134 259.9 287.093 275.241 293.793H304.097C304.097 293.793 308.011 292.463 311.78 289.191C314.808 279.34 311.3 271.987 311.3 271.987V271.993Z" fill="#FFB157"/>
<path d="M277.323 272.138C277.323 272.138 278.919 275.929 275.478 278.626C272.037 281.317 266.15 289.518 277.693 293.799H298.198C298.198 293.799 306.549 290.739 308.394 279.479C308.394 279.479 303.484 286.76 292.797 287.099C292.797 287.099 305.444 277.465 295.747 260.787C295.747 260.787 295.601 265.77 291.007 269.447C286.413 273.117 283.221 279.479 282.481 283.277C282.481 283.277 285.218 275.415 277.323 272.144V272.138Z" fill="#EB5654"/>
<path d="M305.274 288.925C305.274 288.925 295.813 291.84 292.033 291.791V295.002H307.283L305.274 288.925Z" fill="#AB4B38"/>
<path d="M276.425 294.96C276.425 294.96 286.838 294.93 290.619 294.978L291.013 291.434L274.416 288.877L276.425 294.954V294.96Z" fill="#AB4B38"/>
<path d="M284.417 286.186C284.417 286.186 288.24 290.116 290.655 290.068L293.301 294.972L282.208 293.497L284.423 286.186H284.417Z" fill="#AB4B38"/>
<path d="M293.459 286.004C293.459 286.004 291.013 289.233 287.487 291.434L287.767 295.135C287.767 295.135 294.369 295.401 297.191 292.094L293.465 286.004H293.459Z" fill="#AB4B38"/>
<path d="M309.704 289.632C310.257 290.382 307.283 295.008 307.283 295.008L305.274 288.931C305.274 288.931 308.667 288.223 309.704 289.632Z" fill="#F3E190"/>
<path d="M271.994 294.253C271.442 293.503 274.416 288.877 274.416 288.877L276.425 294.954C276.425 294.954 273.032 295.662 271.994 294.253Z" fill="#F3E190"/>
<path d="M279.38 287.909C279.028 288.659 282.208 293.503 282.208 293.503L284.423 286.192C284.423 286.192 280.041 286.5 279.38 287.909Z" fill="#F3E190"/>
<path d="M292.288 288.877C292.288 291.084 294.29 292.874 295.82 292.874C297.349 292.874 297.828 291.084 297.828 288.877C297.828 286.669 297.209 284.879 295.68 284.879C294.151 284.879 292.288 286.669 292.288 288.877Z" fill="#F3E190"/>
<path d="M278.561 176.313C277.256 177.958 275.957 179.597 274.653 181.242C272.45 184.017 270.065 186.926 266.715 188.087L278.561 176.313Z" fill="#9C2622"/>
<path d="M277.031 184.356C276.509 182.602 275.775 181 275.532 179.101C275.132 175.993 275.326 172.225 277.996 170.568C279.07 169.903 280.369 169.716 281.631 169.613C284.174 169.401 286.741 169.456 289.272 169.776C290.437 169.921 291.626 170.127 292.767 169.873C294.503 169.492 295.838 168.149 297.015 166.825C301.912 161.316 304.965 154.338 310.857 149.736C311.774 149.022 312.812 148.357 313.977 148.315C315.991 148.236 317.581 150.014 318.51 151.804C321.823 158.208 324.415 168.252 331.017 172.129C331.958 172.685 333.178 172.346 334.227 172.661C335.896 173.163 336.624 175.074 337.116 176.743C338.129 180.177 339.143 183.612 340.156 187.041C340.205 187.198 340.247 187.38 340.175 187.525C340.071 187.724 339.804 187.773 339.58 187.785C337.061 187.978 334.264 188.093 332.316 186.497C331.454 185.789 330.817 184.779 329.816 184.29C327.267 183.044 325.264 185.439 324.026 187.283C322.552 189.472 322.655 191.304 322.837 193.947C323.055 197.067 323.577 200.157 324.057 203.254C324.409 205.527 324.063 209.712 325.064 211.696C322.964 207.511 321.259 203.133 319.754 198.7C318.759 195.761 317.636 190.18 313.607 193.082C311.561 194.558 311.3 197.043 310.76 199.371C309.48 204.923 308.982 210.656 309.292 216.346C308.133 209.658 306.67 202.824 302.908 197.17C300.923 194.189 292.603 194.703 291.056 197.539C289.745 199.94 290.249 205.068 290.097 207.777C289.909 211.121 289.836 214.471 289.878 217.821C289.175 216.243 289.12 214.459 288.677 212.79C287.833 209.621 285.6 206.949 284.787 203.768C284.441 202.407 284.447 200.236 283.349 199.196C281.607 197.545 279.817 198.434 278.84 200.151C276.097 204.971 276.097 210.849 273.572 215.771C275.466 207.59 276.704 199.256 277.268 190.875C277.408 188.831 277.669 186.557 277.104 184.568C277.086 184.495 277.062 184.423 277.044 184.356H277.031Z" fill="#9C2622"/>
<path d="M325.938 143.628C323.796 146.96 322.406 150.77 321.89 154.7C321.696 156.188 321.629 157.706 321.86 159.194C322.108 160.76 322.685 162.259 323.255 163.741C324.069 165.833 324.876 167.932 325.689 170.024C325.95 170.695 327.898 174.42 326.162 173.876C324.154 173.247 322.782 165.815 322.467 164.031C321.277 157.41 322.109 149.361 325.938 143.634V143.628Z" fill="#9C2622"/>
<path d="M338.026 159.447C338.888 154.071 338.609 148.569 337.796 143.18C338.263 146.277 339.895 149.131 340.205 152.384C340.52 155.734 340.278 159.139 339.507 162.417C338.748 165.634 337.48 168.73 335.72 171.53C335.314 172.177 333.548 175.412 332.522 174.916C331.187 174.269 333.384 171.887 333.754 171.3C335.987 167.702 337.365 163.608 338.032 159.441L338.026 159.447Z" fill="#9C2622"/>
<path d="M313.224 161.092C312.708 160.863 312.156 160.627 311.604 160.742C311.052 160.857 310.584 161.491 310.857 161.981C311.246 162.253 311.822 162.223 312.18 161.909C312.538 161.594 312.642 161.026 312.417 160.609L313.23 161.086L313.224 161.092Z" fill="#CA5C47"/>
<path d="M317.885 166.589C317.818 166.583 317.745 166.571 317.678 166.565C317.509 166.547 317.32 166.529 317.175 166.62C316.987 166.74 316.956 166.994 316.938 167.218C316.908 167.629 316.908 168.113 317.235 168.361C317.484 168.555 317.848 168.53 318.128 168.379C318.407 168.234 318.613 167.986 318.807 167.738C319.026 167.454 319.244 167.079 319.08 166.759C318.898 166.408 318.401 166.402 318.006 166.45L317.885 166.583V166.589Z" fill="#CA5C47"/>
<path d="M313.376 167.799C312.933 167.69 312.466 167.708 312.035 167.847C311.804 167.92 311.561 168.065 311.525 168.301C311.483 168.567 311.737 168.791 311.992 168.857C312.551 168.996 313.182 168.53 313.206 167.956L313.37 167.799H313.376Z" fill="#CA5C47"/>
<path d="M318.182 174.021C317.685 174.269 317.12 174.602 317.06 175.152C316.999 175.703 317.478 176.162 317.976 176.404C318.152 176.489 318.346 176.561 318.54 176.537C318.783 176.507 318.983 176.344 319.141 176.168C319.572 175.696 319.851 175.08 319.912 174.445C319.487 174.348 319.038 174.39 318.637 174.566L318.176 174.021H318.182Z" fill="#CA5C47"/>
<path d="M310.766 175.424C310.536 175.195 310.099 175.455 310.081 175.781C310.062 176.102 310.317 176.38 310.59 176.549C310.754 176.652 310.936 176.724 311.131 176.743C311.507 176.773 311.871 176.543 312.083 176.235C312.296 175.926 312.381 175.539 312.405 175.164C312.411 175.061 312.417 174.959 312.381 174.862C312.29 174.62 311.974 174.529 311.725 174.596C311.476 174.662 311.276 174.844 311.082 175.019L310.766 175.43V175.424Z" fill="#CA5C47"/>
<path d="M307.265 167.762C307.065 167.69 306.858 167.623 306.652 167.654C306.446 167.684 306.239 167.853 306.245 168.059C306.251 168.301 306.5 168.446 306.719 168.543C306.955 168.651 307.198 168.76 307.435 168.875C307.404 168.543 307.192 168.234 306.895 168.083L307.259 167.769L307.265 167.762Z" fill="#CA5C47"/>
<path d="M607.5 289.088C607.5 289.088 582.862 200.442 561.956 181.314L522.383 163.015C522.383 163.015 469.374 101.926 448.468 50.5912L429.801 38.6842L419.351 20.5848C419.351 20.5848 328.262 2.23143 246.883 0L239.625 8.92572C239.625 8.92572 149.076 18.8492 138.62 20.5848L109.825 96.4897H119.207L157.408 44.6347L203.784 49.8413L230.607 34.2153L286.45 39.4219C286.45 39.4219 290.218 73.0627 299.163 80.7971C308.102 88.5255 370.044 73.8186 370.044 73.8186L381.271 92.2748L419.351 102.017L438.018 123.134L441.003 187.634L491.773 211.937V265.601L498.491 289.082L534.508 298.534L538.058 296.036L607.494 289.082L607.5 289.088Z" fill="#F0786A"/>
<path d="M42.4943 280.181L59.8564 249.811L118.655 239.344L124.565 261.664L130.27 266.332L137.133 287.334L89.8168 283.24L68.2553 287.582L42.4943 280.181Z" fill="#F0786A"/>
<path d="M20.1014 269.9L16.7394 283.748L42.4943 284.305L39.1384 267.034L29.6169 269.9H20.1014Z" fill="#F0786A"/>
<path d="M261.241 102.767C259.876 104.152 259.548 106.45 260.476 108.161C261.447 109.945 263.644 111.324 263.359 113.331C263.08 115.278 260.665 116.028 258.698 116.125C255.039 116.3 251.349 115.672 247.957 114.293C247.441 115.133 247.945 116.3 248.776 116.845C249.608 117.389 250.645 117.468 251.635 117.516C255.257 117.703 258.886 117.746 262.515 117.631C264.269 128.226 262.224 139.044 260.191 149.591C262.139 145.297 263.468 140.725 264.118 136.057C264.257 135.053 264.385 134.001 264.973 133.172C265.562 132.344 266.788 131.872 267.625 132.447C268.05 132.743 268.287 133.233 268.499 133.704C270.817 138.832 272.723 144.148 274.191 149.578C274.956 138.403 264.828 128.165 267.018 117.177C270.411 116.935 273.827 117.02 277.207 117.437C277.96 116.512 277.019 115.037 275.86 114.758C274.695 114.48 273.499 114.928 272.334 115.182C269.616 115.78 265.974 114.577 265.847 111.801C265.786 110.453 266.612 109.231 267.449 108.167C271.691 102.785 265.623 98.3402 261.253 102.767H261.241Z" fill="#9C2622"/>
<path d="M132.115 198.954C131.459 198.833 130.773 198.682 130.258 198.253C129.693 197.787 129.426 197.061 129.208 196.366C128.437 193.844 128.085 191.195 128.176 188.565C133.098 187.906 137.946 186.708 142.607 185.003C139.002 184.646 135.319 185.094 131.908 186.303C130.16 186.926 127.897 187.622 126.714 186.2C125.087 184.253 127.806 181.574 127.933 179.047C128.043 176.864 126.01 175.025 123.855 174.638C121.701 174.251 119.504 174.971 117.495 175.854C116.531 176.277 115.547 176.767 114.91 177.601C113.836 179.004 114.055 181.109 115.098 182.53C116.142 183.951 117.853 184.767 119.583 185.13C121.379 185.511 123.746 185.904 124.007 187.712C124.104 188.402 123.813 189.091 123.412 189.666C122.108 191.528 119.668 192.387 117.392 192.199C115.123 192.012 113.011 190.911 111.202 189.526C110.456 188.952 109.722 188.329 108.915 187.851C110.79 182.868 112.204 177.644 113.496 172.739C113.891 171.252 114.297 169.698 115.329 168.549C116.361 167.4 118.218 166.831 119.48 167.726C119.565 164.709 119.322 161.685 118.77 158.716C116.67 160.965 114.777 163.414 113.126 166.009C113.794 166.263 114.455 166.511 115.123 166.765C112.883 172.491 110.644 178.218 108.405 183.945C108.144 184.616 107.585 185.753 106.936 187.114C105.619 187.011 104.175 187.694 103.963 188.97C104.527 189.248 105.103 189.52 105.686 189.793C104.09 193.324 102.621 197.225 103.659 198.494C105.249 196.088 106.578 193.457 107.749 190.724C112.956 192.961 118.582 194.449 123.546 192.121C124.159 191.836 124.844 191.486 125.469 191.728C129.183 193.161 127.211 200 125.961 202.135C123.406 206.501 122.775 210.825 121.222 215.475C122.666 210.698 124.844 206.138 127.648 202.002C128.121 201.306 128.649 200.593 129.426 200.272C130.264 199.928 131.21 200.109 132.096 200.303C137.849 201.566 143.523 203.229 149.052 205.261C145.235 200.411 138.171 200.091 132.09 198.954H132.115Z" fill="#9C2622"/>
<path d="M321.714 52.0788C325.021 51.1778 328.335 50.3674 331.667 49.6176C334.992 48.8375 338.33 48.1602 341.667 47.4648C345.011 46.8298 348.349 46.1162 351.699 45.5478C355.055 44.9612 358.398 44.3202 361.76 43.8062L360.589 44.3807C363.684 41.3812 366.761 38.3576 369.929 35.4308L370.699 34.7172L371.701 34.8381C378.995 35.715 386.277 36.7188 393.535 37.898C397.17 38.4544 400.793 39.1196 404.41 39.7848C408.027 40.4681 411.644 41.1877 415.242 42.0404C411.541 42.0525 407.857 41.9315 404.18 41.7804C400.502 41.605 396.824 41.4296 393.159 41.1575C385.822 40.6677 378.504 39.9904 371.197 39.1982L372.969 38.6056C369.898 41.6292 366.731 44.5621 363.593 47.5131L363.089 47.9848L362.422 48.0876C359.06 48.5956 355.674 48.9766 352.3 49.412C348.925 49.8655 345.533 50.1739 342.147 50.561C338.755 50.8875 335.362 51.2322 331.958 51.4801C328.559 51.7523 325.149 51.9639 321.72 52.0849L321.714 52.0788Z" fill="#CA5C47"/>
<path d="M419.351 90.0252C423.896 90.0313 428.241 90.763 432.52 91.6943C434.668 92.1297 436.774 92.7223 438.873 93.327C440.973 93.9257 443.036 94.6574 445.094 95.4133L443.328 95.7701C444.105 95.2017 444.942 94.7058 445.749 94.1736C446.55 93.6415 447.394 93.1517 448.237 92.6679C449.924 91.6943 451.654 90.7751 453.517 90.0192C452.394 91.6822 451.138 93.1819 449.833 94.6272C449.184 95.3468 448.535 96.0725 447.843 96.7437C447.157 97.421 446.502 98.1406 445.779 98.7756L445.112 99.3682L444.007 99.1324C441.865 98.6788 439.723 98.2071 437.629 97.5964C435.53 96.9977 433.436 96.3748 431.379 95.6068C427.258 94.1253 423.198 92.432 419.345 90.0252H419.351Z" fill="#CA5C47"/>
<path d="M460.229 170.314C463.682 169.752 467.135 169.413 470.588 169.105C474.041 168.797 477.494 168.609 480.947 168.422L481.948 168.367L482.585 169.359C484.982 173.078 487.331 176.833 489.582 180.637L487.215 179.591C490.286 178.889 493.387 178.351 496.47 177.722C499.571 177.166 502.666 176.604 505.779 176.132C508.892 175.642 512.018 175.219 515.155 174.844C518.299 174.505 521.442 174.154 524.628 174.021C521.654 175.176 518.638 176.12 515.622 177.069C512.6 177.982 509.566 178.847 506.52 179.645C503.473 180.456 500.415 181.187 497.35 181.919C494.273 182.578 491.215 183.328 488.126 183.915L486.542 184.217L485.753 182.868C483.526 179.047 481.39 175.17 479.308 171.27L480.947 172.207C477.494 172.02 474.041 171.832 470.588 171.524C467.135 171.221 463.682 170.877 460.229 170.314Z" fill="#CA5C47"/>
<path d="M518.468 263.466C522.844 263.436 527.189 263.611 531.522 263.883C535.855 264.143 540.182 264.488 544.49 264.942C548.805 265.341 553.102 265.897 557.398 266.429C561.689 267.034 565.979 267.596 570.251 268.322L567.939 270.118C568.309 267.693 568.625 265.262 569.056 262.843C569.462 260.424 569.857 257.999 570.336 255.593L570.555 254.504L571.459 254.431C575.798 254.093 580.149 253.857 584.531 253.827C580.331 255.072 576.095 256.113 571.847 257.044L572.97 255.889C572.891 258.344 572.727 260.793 572.569 263.242C572.442 265.691 572.199 268.134 572.011 270.578L571.853 272.579L569.699 272.368C565.384 271.95 561.094 271.364 556.797 270.819C552.513 270.203 548.223 269.61 543.95 268.866C539.672 268.177 535.412 267.366 531.158 266.484C526.904 265.613 522.668 264.639 518.456 263.46L518.468 263.466Z" fill="#CA5C47"/>
</svg>
