<svg width="277" height="340" viewBox="0 0 277 340" fill="none" xmlns="http://www.w3.org/2000/svg">
<g clip-path="url(#clip0_89_2544)">
<path fill-rule="evenodd" clip-rule="evenodd" d="M71.9455 147.298C77.5898 159.671 79.7041 173.142 95.8598 175.546C107.291 175.864 130.769 165.688 129.224 161.751C127.543 157.471 133.536 154.08 126.969 154.203C118.241 154.176 96.8752 156.385 94.9048 156.247C93.0412 156.116 85.8214 128.569 74.3675 124.415C73.0089 123.541 67.9711 141.32 71.9455 147.298Z" fill="#2A4589"/>
<path fill-rule="evenodd" clip-rule="evenodd" d="M129.225 153.835C130.009 152.61 133.177 147.792 134.45 147.262C135.099 146.991 135.134 147.239 135.238 147.603C135.327 147.925 135.223 148.664 134.992 149.109C134.509 150.042 134.526 151.947 134.183 152.42C139.76 154.642 147.036 150.813 147.573 153.933C147.309 154.512 144.666 157.137 144.165 157.993C142.569 160.712 141.492 161.879 129.56 162.443C128.996 162.47 127.504 162.843 126.89 162.864C126.35 161.944 125.514 158.938 126.364 155.894L129.225 153.835Z" fill="#F7AAAC"/>
<path fill-rule="evenodd" clip-rule="evenodd" d="M87.6779 200.703C92.8029 223.162 83.7852 276.882 81.0076 318.889C80.8191 321.747 81.2957 325.245 84.381 326.924C87.2013 328.463 93.4679 329.286 95.136 330.879C96.3381 332.028 102.002 337.441 85.528 337.008C73.8234 336.7 71.035 335.887 69.7813 333.988C69.6053 333.724 61.9267 237.344 60.7104 230.027C58.6209 239.353 31.063 327.314 31.0701 327.362C31.2639 328.771 33.1364 332.507 35.2224 334.832C35.8608 337.114 39.4049 340.092 28.0577 339.995C16.7105 339.897 19.369 335.496 19.3299 334.804C24.3642 287.512 32.121 225.866 34.1963 198.451C34.1981 198.451 49.2938 198.236 57.5237 193.592C70.0321 186.536 77.7569 157.828 75.4202 187.374C74.9828 192.912 85.7325 193.064 87.6814 200.699" fill="#2A4589"/>
<path fill-rule="evenodd" clip-rule="evenodd" d="M18.1348 147.341C10.4686 166.027 7.27485 186.396 4.88129 206.297C4.63945 208.302 5.44501 210.181 7.92748 211.509C9.50658 212.355 10.6749 211.93 13.5948 209.368C18.0263 204.038 21.1614 184.82 25.9823 176.955C35.4961 161.429 44.6595 146.367 39.6057 136.418C39.3656 135.021 19.6516 141.228 18.1348 147.341Z" fill="#1B326B"/>
<path fill-rule="evenodd" clip-rule="evenodd" d="M30.4955 166.517C32.3325 177.274 33.8263 195.517 32.8144 213.841C54.8988 217.629 75.9838 216.432 89.1733 212.238C88.5562 197.684 92.8614 127.844 71.2643 123.218C56.654 119.128 37.0592 120.421 28.9645 128.393L28.8951 128.459C22.7103 134.245 15.0672 153.324 11.468 167.148C3.92279 196.137 24.1702 180.128 30.4938 166.519" fill="#2A4589"/>
<path fill-rule="evenodd" clip-rule="evenodd" d="M65.5915 121.808C68.2429 133.827 69.1659 174.41 68.8849 187.818C68.371 186.808 45.8847 130.934 43.9819 121.658C50.149 119.906 58.7985 120.144 65.5915 121.808Z" fill="white"/>
<path d="M69.7811 164.99L68.8848 187.818L58.9034 166.83L58.3041 137.084L55.9639 133.811L58.4766 131.051L61.5797 132.717L60.5447 136.484C63.6122 144.65 67.7378 158.629 69.7811 164.99Z" fill="#F79D2C"/>
<path fill-rule="evenodd" clip-rule="evenodd" d="M30.4956 166.517C32.217 177.455 33.2235 200.113 32.8145 213.841C38.6045 199.504 35.5335 161.978 34.4096 156.197C33.3622 159.715 32.0391 163.289 30.4956 166.517Z" fill="#1B326B"/>
<path fill-rule="evenodd" clip-rule="evenodd" d="M67.2027 110.859C65.6502 113.945 63.4736 116.327 61.0481 117.487L61.1316 121.973L61.7861 122.529C64.345 125.267 61.5744 130.892 58.6598 130.718C51.2889 131.08 45.6304 125.043 47.8462 121.767L48.8082 120.696L49.0216 114.347C48.6411 114.326 45.8741 112.754 45.0489 112.502C44.2256 112.248 43.0164 110.663 42.9346 108.989C42.8545 107.316 45.4437 107.857 45.4437 107.857C42.3068 103.57 38.7538 100.066 43.3596 96.2054C47.9653 92.3445 58.5478 90.0908 58.5478 90.0908L64.9176 87.8868C64.1067 90.0819 65.1915 97.4042 66.8257 101.976C68.291 106.076 69.2868 106.714 67.2027 110.859Z" fill="#F7AAAC"/>
<path fill-rule="evenodd" clip-rule="evenodd" d="M52.02 115.229C52.02 115.229 55.6228 121.399 58.5819 121.959C61.5409 122.518 60.0276 122.104 61.1319 121.973L61.0483 117.487C59.0086 117.813 57.0134 117.654 52.02 115.229Z" fill="#EA8287"/>
<path fill-rule="evenodd" clip-rule="evenodd" d="M63.7991 97.3775C58.5034 100.088 52.4057 96.8732 49.3222 100.5C47.7947 102.297 47.9476 104.886 49.6583 108.886C50.1616 110.065 50.8355 110.932 48.8421 110.01C47.9263 109.587 46.4201 108.996 45.9061 109.411C44.7609 110.335 45.3389 112.28 46.2529 112.905C46.6601 113.184 47.4337 113.601 47.4337 113.601C40.3117 112.253 37.3438 105.835 37.4433 100.668C37.4771 98.9173 37.6745 97.3598 38.0053 95.9745C37.8595 95.4986 37.7794 94.9907 37.7794 94.4632C37.7794 92.2202 39.2109 90.327 41.1688 89.7303C41.5334 87.3878 43.4735 85.5994 45.8119 85.5994C46.5161 85.5994 47.1847 85.761 47.784 86.0523L48.0187 85.9901C48.8741 84.5232 50.4781 83.5357 52.315 83.5357C53.6025 83.5357 54.7762 84.0206 55.6582 84.8162C56.9563 83.0544 58.9178 81.9303 61.1139 81.9303C65.0226 81.9303 68.1915 85.4875 68.1915 89.8759C68.1915 92.6233 66.9502 95.0439 65.0635 96.4718C64.6829 96.8057 64.2615 97.1094 63.7974 97.3775" fill="#2A4589"/>
<path fill-rule="evenodd" clip-rule="evenodd" d="M68.8852 187.816L75.0469 137.512L70.0553 133.305L73.2153 129.567L70.1157 122.909C68.8407 122.932 67.1051 122.081 65.5918 121.808C68.2432 133.826 69.1661 174.406 68.8852 187.816Z" fill="#4563AC"/>
<path fill-rule="evenodd" clip-rule="evenodd" d="M68.8851 187.816L38.4873 141.178L42.0278 135.697L37.9111 133.046L39.3853 122.847C40.4274 122.546 42.7356 121.88 43.9928 121.717C45.9703 131.151 68.357 186.777 68.8833 187.816" fill="#4563AC"/>
<path d="M221.605 157.21L211.231 242.921L216.518 323.878C216.34 324.119 216.164 324.357 215.989 324.59C215.854 324.775 215.719 324.952 215.584 325.128C215.259 325.554 214.938 325.958 214.618 326.336C214.474 326.508 214.33 326.675 214.181 326.835C211.798 329.456 208.722 330.09 206.202 330.703C204.249 331.179 202.747 331.411 201.422 334.019C201.379 334.1 201.347 334.182 201.324 334.265C201.043 335.196 201.761 336.187 202.788 336.162L225.916 335.439C227.057 335.413 227.964 334.541 228.082 333.456C228.098 333.303 228.101 333.145 228.083 332.987L226.54 322.903C226.54 322.903 226.54 322.887 226.533 322.86C227.095 303.177 231.553 274.329 227.899 251.337C227.899 251.337 249.745 208.204 249.656 207.157C249.567 206.112 221.607 157.208 221.607 157.208" fill="#F7AAAC"/>
<path d="M236.244 234.254C237.249 242.919 231.197 248.059 232.202 256.724C232.214 278.415 247.435 303.408 252.581 325.311C252.752 326.036 251.455 332.926 251.603 333.644C253.888 336.084 260.404 339.529 261.101 328.272C258.186 309.358 254.564 278.793 247.063 255.784L251.8 232.844L236.244 234.254Z" fill="#F7AAAC"/>
<path fill-rule="evenodd" clip-rule="evenodd" d="M205.245 186.754C200.243 203.34 202.86 235.181 205.455 262.426C224.239 267.243 251.884 265.937 258.789 260.11C254.181 224.573 251.836 190.427 244.475 184.14C228.965 147.939 207.519 177.558 205.245 186.754Z" fill="#2A4589"/>
<path d="M215.998 144.938C210.959 155.984 206.623 164.676 194.095 166.047C182.736 169.618 172.464 148.369 167.533 136.177C165.072 130.094 172.094 124.718 173.679 126.303C176.437 128.457 190.478 150.441 190.711 150.385C196.343 149.017 205.476 128.173 215.603 125.51C216.818 124.729 219.546 139.601 215.998 144.938Z" fill="#F79D2C"/>
<path d="M256.134 130.448C260.551 148.449 242.859 150.706 246.867 187.049C233.612 188.887 216.137 189.399 204.741 186.596C206.564 173.225 201.786 155.252 204.809 144.932C206.792 138.159 212.221 126.892 215.607 125.512C231.592 121.039 249.554 120.648 256.137 130.449" fill="#F79D2C"/>
<path fill-rule="evenodd" clip-rule="evenodd" d="M225.284 119.629L225.204 123.996L224.567 124.535C222.076 127.201 224.774 132.675 227.612 132.506C234.785 132.859 240.295 126.983 238.137 123.795L237.2 122.752L236.994 116.574C237.364 116.553 240.058 115.023 240.86 114.778C241.66 114.532 242.839 112.988 242.917 111.36C242.996 109.731 240.476 110.259 240.476 110.259C243.529 106.085 246.988 102.675 242.503 98.9191C238.02 95.1611 227.72 92.9678 227.72 92.9678L221.521 90.8225C222.311 92.959 221.256 100.084 219.663 104.535C217.403 110.861 218.655 116.458 225.286 119.632" fill="#F7AAAC"/>
<path fill-rule="evenodd" clip-rule="evenodd" d="M234.071 117.432C234.071 117.432 230.564 123.438 227.685 123.981C224.806 124.525 226.276 124.123 225.204 123.996L225.286 119.629C227.27 119.946 229.212 119.79 234.072 117.432" fill="#EA8287"/>
<path d="M234.284 167.156L217.127 194.219L256.064 218.84L273.221 191.777L234.284 167.156Z" fill="#7BA9E3"/>
<path d="M252.271 126.581C268.178 133.168 279.687 168.359 276.425 178.137C273.687 186.067 250.772 205.81 243.945 202.956C240.652 201.58 238.39 198.316 243.344 195.105C250.582 191.906 262.772 176.372 263.186 174.403C263.938 168.815 254.903 154.546 252.46 150.139C248.93 143.773 243.006 125.122 252.269 126.583L252.271 126.581Z" fill="#F79D2C"/>
<path d="M252.271 126.581C268.178 133.168 279.687 168.359 276.425 178.137C273.687 186.067 250.772 205.81 243.945 202.956C240.652 201.58 238.39 198.316 243.344 195.105C250.582 191.906 262.772 176.372 263.186 174.403C263.938 168.815 254.903 154.546 252.46 150.139C248.93 143.773 243.006 125.122 252.269 126.583L252.271 126.581Z" stroke="#F79D2C" stroke-width="0.22" stroke-miterlimit="10"/>
<path fill-rule="evenodd" clip-rule="evenodd" d="M170.641 123.761C170.592 122.296 170.319 116.487 169.45 115.361C169.005 114.785 168.84 114.979 168.548 115.24C168.294 115.467 167.986 116.158 167.956 116.663C167.892 117.719 167.8 118.675 167.857 119.261C165.687 116.212 164.128 113.379 161.626 110.646C160.647 109.578 159.374 109.248 159.927 111.328C160.379 113.029 161.892 116 161.892 116C158.186 116.847 160.027 123.109 160.436 123.324C160.523 123.37 163.201 125.416 164.008 126.123C166.025 127.887 166.69 130.32 167.953 132.49C168.941 131.982 171.587 129.842 172.464 126.777L170.641 123.758V123.761Z" fill="#F7AAAC"/>
<path fill-rule="evenodd" clip-rule="evenodd" d="M241.655 197.339L239.281 198.648L233.423 198.747C232.737 198.584 228.428 198.417 229.785 199.564C230.738 200.371 233.414 201.484 233.375 201.601C232.883 203.129 229.465 203.287 229.413 203.425C228.684 205.375 231.741 204.619 232.563 204.319C232.778 204.24 230.976 205.542 231.161 205.654C232.107 206.231 232.753 205.704 233.957 205.565C234.25 205.532 232.82 206.684 233.08 206.782C234.22 207.213 234.791 206.624 235.511 206.521C235.685 206.496 235.089 206.97 234.876 207.347C234.695 207.665 235.235 207.991 235.626 207.86C241.404 205.938 238.148 205.116 244.824 203.091C248.537 201.965 243.067 197.671 241.651 197.337" fill="#F7AAAC"/>
<path fill-rule="evenodd" clip-rule="evenodd" d="M233.089 102.766C233.089 102.766 224.192 103.066 220.876 100.194C213.923 94.2252 218.155 79.9856 235.934 85.2584C250.08 89.455 242.526 99.0576 260.937 104.805C267.756 106.934 266.945 110.347 260.962 112.663C265.044 114.103 260.327 118.867 256.548 118.387C262.137 122.857 255.95 123.035 254.841 123.44C252.662 128.345 244.006 128.077 238.137 123.795C231.565 118.982 243.117 104.266 233.089 102.766Z" fill="#2A4589"/>
<path fill-rule="evenodd" clip-rule="evenodd" d="M206.909 329.955C206.909 329.955 198.856 332.182 199.218 334.661C199.949 339.67 227.593 336.363 227.74 336.18C228.72 334.963 228.836 329.312 227.516 327.627C226.535 326.373 215.717 333.081 206.909 329.955Z" fill="#2A4589"/>
<path fill-rule="evenodd" clip-rule="evenodd" d="M249.063 337.148C249.237 340.362 261.13 339.322 262.88 338.357C265.482 336.922 262.441 329.895 261.068 328.053C261.068 328.053 258.036 332.82 254.451 331.857C250.866 330.895 252.123 329.831 251.51 331.039C250.363 333.298 248.905 334.184 249.065 337.148" fill="#2A4589"/>
<path fill-rule="evenodd" clip-rule="evenodd" d="M12.4835 209.373L11.356 213.058L12.0869 219.338C12.359 220.048 13.1539 224.634 11.7295 223.346C10.7283 222.44 9.15097 219.739 9.03183 219.796C7.46517 220.542 4.70173 228.832 4.55947 228.907C2.57313 229.965 4.01887 224.6 4.22337 223.678C4.27672 223.437 2.40242 227.15 2.25482 226.967C2.07522 226.745 1.57374 226.181 1.82448 225.168C2.13034 223.929 2.99992 221.893 2.83276 221.634C2.66027 221.364 0.871326 224.98 0.729064 224.715C0.618811 224.511 0.382301 224.103 0.595694 223.332C0.947792 222.057 1.87072 220.224 1.76224 219.901C1.65021 219.567 0.522784 222.233 0.446319 221.918C0.387635 221.673 -0.0427069 221.584 0.00174992 221.345C1.23765 214.889 4.467 215.805 5.68334 208.377C6.36086 204.244 11.9215 207.906 12.4817 209.373" fill="#F7AAAC"/>
<path fill-rule="evenodd" clip-rule="evenodd" d="M125.523 109.704C131.313 108.321 137.13 111.887 138.515 117.67C139.901 123.452 136.33 129.261 130.54 130.645C124.75 132.028 118.933 128.462 117.548 122.68C116.162 116.897 119.733 111.088 125.523 109.704ZM119.411 40.007C120.802 40.6233 122.004 41.4384 122.984 42.6017C124.933 44.5091 126.386 46.9705 127.067 49.8174C128.011 53.7618 127.302 57.7133 125.386 60.9473C121.222 67.9766 114.023 69.2073 106.791 71.1697L114.651 104.027L131.258 100.153L126.749 80.7972C130.237 78.6057 131.893 78.3233 135.798 74.9188C146.343 65.7282 148.305 52.0267 142.893 39.5026C136.785 25.3642 121.887 16.7366 104.653 20.8267C94.9565 23.1283 88.1848 28.3247 84.0895 34.8692C80.1417 41.1756 77.4618 51.2683 80.0759 58.6847L97.4763 54.5397C96.8682 47.276 101.641 40.4599 108.957 38.7105C112.629 37.8332 116.308 38.3838 119.41 40.0052L119.411 40.007Z" fill="#3D7DDA"/>
<path fill-rule="evenodd" clip-rule="evenodd" d="M192.574 93.8665L181.835 90.533L208.714 0L221.811 4.06517L192.574 93.8665Z" fill="#3D7DDA"/>
<path d="M190.848 99.4016L180.119 96.0724L177.126 105.692L187.856 109.021L190.848 99.4016Z" fill="#3D7DDA"/>
</g>
<defs>
<clipPath id="clip0_89_2544">
<rect width="277" height="340" fill="white"/>
</clipPath>
</defs>
</svg>
