<svg width="156" height="56" viewBox="0 0 156 56" fill="none" xmlns="http://www.w3.org/2000/svg">
<g id="Logo Univesp">
<path id="Vector" d="M93.7899 1.19998L86.66 46.5H81.6099L74.2999 1.19998H69.5699L79.1499 55.11H88.8099L98.3899 1.19998H93.7899Z" fill="#D13239"/>
<path id="Vector_2" d="M84.1299 36.22L89.1899 1.19998L84.1299 36.18L79.0699 1.19998H74.2999H79.0699L84.1299 36.22Z" fill="white"/>
<path id="Vector_3" d="M86.6599 46.5L93.7899 1.19998H89.1899L84.1299 36.18L79.0699 1.19998H74.2999L81.6099 46.5H86.6599Z" fill="white"/>
<path id="Vector_4" d="M5.66995 1.31999C4.79995 1.86999 4.52995 2.69999 4.56995 3.72999L4.48995 17.67C4.36995 21.38 5.82995 25.17 9.37995 26.79C13.3199 28.76 17.6599 26.75 20.6899 24.3L20.7699 24.02L20.9699 3.84999C21.0499 2.93999 20.6199 2.10999 19.8299 1.67999C19.5899 1.55999 19.2799 1.55999 19.2399 1.28999L19.2799 1.20999C21.1299 1.44999 23.0199 1.28999 24.8799 1.28999C24.9599 1.28999 25.0399 1.28999 25.0399 1.36999C24.8799 1.68999 24.5299 1.68999 24.2899 1.87999C23.4199 2.66999 23.3799 3.88999 23.3799 5.07999L23.0999 24.58C23.1799 25.65 23.0199 27.03 24.0499 27.7C24.3299 27.9 24.5999 27.9 24.8799 28.09C24.8799 28.13 24.8399 28.25 24.7199 28.21C23.0199 28.13 21.2899 27.89 19.5599 28.13C19.5199 28.09 19.5199 28.05 19.5199 27.97C20.4699 27.38 20.6999 26.27 20.6999 25.17C20.5399 25.01 20.4599 25.25 20.2699 25.37C16.8399 27.9 12.1499 29.52 7.84995 27.82C4.88995 26.79 2.68995 23.64 2.44995 20.63C2.09995 17.83 2.32995 11.79 2.32995 11.79C2.40995 9.02999 2.48995 6.13999 2.28995 3.37999C2.12995 2.46999 1.14995 1.71999 0.319946 1.44999C0.319946 1.36999 0.399947 1.32999 0.439947 1.28999C2.09995 1.28999 3.70995 1.52999 5.32995 1.20999H5.67995V1.32999L5.66995 1.31999ZM32.7099 26.31C32.7499 26.86 33.2599 27.3 33.6999 27.53C33.9799 27.69 34.3699 27.65 34.6099 27.88L34.4499 28.04C32.5999 27.88 29.7199 27.96 28.8899 28.08C28.7699 27.76 29.5999 27.72 29.8799 27.53C30.6699 27.13 30.8999 26.35 30.8999 25.59L31.1399 2.96999C30.7099 2.17999 29.8399 1.62999 29.0099 1.46999C28.8499 1.38999 28.9299 1.30999 28.9299 1.22999L29.1699 1.14999C30.8299 1.30999 32.5999 1.30999 34.2199 0.98999C34.2999 1.30999 33.9799 1.45999 33.9799 1.73999C33.8599 2.28999 33.9799 2.80999 34.2999 3.27999L50.9299 22.66L51.0499 22.58L51.1299 4.69999C51.0499 3.66999 51.0899 2.60999 50.1499 1.97999C49.8699 1.69999 49.3599 1.77999 49.0899 1.46999L49.3699 1.34999C51.0599 1.42999 53.04 1.46999 54.7299 1.18999L54.8099 1.26999C54.8899 1.46999 54.5699 1.54999 54.4899 1.58999C53.9799 1.70999 53.4299 1.94999 53.1099 2.45999C52.4799 4.27999 52.8299 5.92999 52.6799 7.94999V8.73999L52.5199 27.69C52.4799 27.89 52.5999 28.13 52.4399 28.2L52.3199 28.12L43.4899 17.66C39.7499 13.4 36.2799 9.04999 32.6099 4.90999H32.5699C32.5699 8.33999 32.2499 22.95 32.7299 26.31M63.5999 1.94999C62.5399 2.65999 62.77 3.36999 62.6899 4.43999C62.6899 4.43999 62.6099 25.13 62.9299 26.82C63.0499 27.45 63.72 27.77 64.2299 28.08L64.0299 28.24C62.3699 27.92 60.4399 28.12 58.6699 28.16C58.5099 27.84 59.0199 27.92 59.1399 27.77C59.4899 27.69 59.9699 27.41 60.0499 27.02L60.2899 25.87V4.23999C60.2099 3.48999 60.1299 2.53999 59.4599 2.10999L59.2999 1.86999C58.95 1.58999 58.3899 1.70999 58.2399 1.35999L58.3599 1.31999C60.3299 1.51999 62.4599 1.55999 64.3499 1.27999C64.5099 1.27999 64.5899 1.19999 64.7399 1.27999C64.4999 1.66999 63.9499 1.66999 63.5999 1.94999ZM111.91 14.54C110.06 14.42 108.13 14.5 106.31 14.7L106.27 14.86C106.23 18.77 106.11 22.83 106.35 26.78L106.51 26.86C109.19 26.66 112.62 27.06 115.42 26.5C116.25 26.3 117 25.43 117.35 24.68C117.39 24.6 117.47 24.6 117.51 24.68L117.59 24.72C117.39 25.67 117.12 26.5 116.68 27.4C116.44 27.8 115.97 27.99 115.54 28.11C110.93 28.15 106.91 27.83 102.22 28.11C102.14 28.03 102.14 27.95 102.14 27.87C102.61 27.67 103.48 27.24 103.72 26.41L103.88 25.38L103.92 18.31V4.68999C103.84 3.73999 103.92 2.43999 102.97 1.76999C102.81 1.52999 102.38 1.60999 102.38 1.21999H102.54C106.01 1.21999 109.28 1.17999 112.79 1.09999C113.03 1.13999 113.34 1.13999 113.5 1.29999C113.97 1.92999 114.05 2.63999 114.13 3.42999C113.97 3.54999 113.89 3.34999 113.81 3.30999C113.34 2.39999 112.39 2.19999 111.44 2.23999L106.39 2.35999L106.27 2.39999C106.27 6.06999 106.15 9.69999 106.31 13.3L106.47 13.34C108.6 13.26 110.77 13.42 112.82 13.06C113.41 12.86 113.96 12.39 114.16 11.8C114.2 11.72 114.28 11.72 114.4 11.76C114.28 13.1 114.28 14.45 114.32 15.79C114.28 15.83 114.2 15.83 114.16 15.79C114.16 15.79 114.48 14.72 111.91 14.53M134.14 2.16999V2.32999C134.22 3.31999 134.3 4.25999 134.06 5.16999C134.02 5.28999 133.94 5.20999 133.9 5.20999C133.23 3.82999 131.69 2.32999 130.12 2.16999C127.95 1.65999 125.63 2.40999 124.44 4.29999C123.69 5.63999 123.77 7.53999 124.44 8.83999C125.03 9.78999 126.13 10.7 127.04 11.56C129.36 13.42 131.85 14.96 134.13 17.05C135.63 18.75 135.94 21.51 135.23 23.52C134.6 25.61 132.63 27.67 130.46 28.06C127.78 28.77 125.02 27.94 122.34 27.78C122.26 26.4 122.1 25.02 122.02 23.56C122.02 23.4 122.18 23.4 122.3 23.44C122.54 23.83 122.54 24.31 122.69 24.7C123.79 27.19 126.51 27.62 128.96 27.46C130.81 27.3 132.74 26.16 133.41 24.26C134.12 22.56 133.61 20.51 132.5 19.17C131.59 18.06 130.45 17.2 129.43 16.45C126.67 14.2 122.33 12.03 122.3 7.95999C122.22 5.66999 123.17 3.49999 125.18 2.19999C127.74 0.459991 131.37 1.24999 134.13 2.15999M154.04 3.89999C155.5 5.86999 155.58 8.98999 154.55 11.12C153.56 13.37 151.16 14.79 148.83 14.91C147.73 15.03 146.58 14.95 145.52 14.79C145.44 14.75 145.4 14.63 145.44 14.51L145.68 14.47C147.85 14.79 150.21 14.63 151.63 12.85C153.33 10.76 153.29 7.19999 152.1 4.90999C151.39 3.32999 149.77 2.14999 148.12 1.94999C146.98 1.82999 145.6 1.94999 144.53 2.22999L144.45 2.34999L144.33 8.03999L144.37 25.69C144.45 26.48 144.88 27.43 145.71 27.66C145.95 27.74 146.26 27.7 146.34 27.98C146.06 28.26 145.55 28.06 145.2 28.1C143.54 27.86 141.81 27.86 140.27 28.14C140.15 28.14 140.07 28.14 139.99 28.1L140.07 27.9C140.66 27.66 141.49 27.47 141.88 26.75L142 25.84L142.12 14.47L142.04 3.84999C142 2.85999 141.33 1.98999 140.5 1.51999C140.42 1.39999 140.5 1.27999 140.62 1.31999C145.15 1.55999 150.99 -0.38001 154.02 3.88999" fill="white"/>
<path id="Vector_5" d="M79.0699 1.19998H89.1899L84.1299 36.18L79.0699 1.19998Z" fill="#1D1D1B"/>
</g>
</svg>
