<svg width="519" height="191" viewBox="0 0 519 191" fill="none" xmlns="http://www.w3.org/2000/svg">
<g clip-path="url(#clip0_89_2669)">
<path d="M10.3705 94.491H0C0 44.6339 40.4895 4.08057 90.268 4.08057C134.195 4.08057 171.573 35.4786 179.173 78.7326L168.965 80.528C162.239 42.245 129.157 14.4526 90.268 14.4526C46.2081 14.4675 10.3705 50.3616 10.3705 94.491Z" fill="#808DF6"/>
<path d="M163.276 77.6791L175.351 94.491L183.854 75.6017L163.276 77.6791Z" fill="#808DF6"/>
<path d="M354.035 119.464L345.531 100.575L333.457 117.387L338.479 117.891C330.464 154.423 298.182 180.598 260.449 180.598C216.389 180.598 180.551 144.704 180.551 100.575H170.181C170.181 150.432 210.67 190.985 260.449 190.985C303.486 190.985 340.228 160.833 348.835 118.93L354.035 119.449V119.464Z" fill="#FD78AD"/>
<path d="M519 72.0553C510.393 30.1516 473.651 0 430.614 0C380.835 0 340.346 40.5534 340.346 90.4104H350.716C350.716 46.281 386.554 10.3869 430.614 10.3869C468.348 10.3869 500.629 36.5618 508.63 73.094L519 72.0553Z" fill="#009993"/>
<path d="M69.2311 65.5264C69.2311 68.3309 68.5347 70.4825 67.1421 71.996C65.7495 73.5095 63.7643 74.2514 61.1717 74.2514C58.5791 74.2514 56.5938 73.4947 55.2012 71.996C53.8086 70.4973 53.1123 68.3309 53.1123 65.4968C53.1123 62.6626 53.8086 60.5259 55.2012 59.0272C56.5938 57.5434 58.5939 56.8015 61.1865 56.8015C63.7791 56.8015 65.7792 57.5582 67.157 59.0569C68.5348 60.5556 69.2162 62.7071 69.2162 65.5264H69.2311ZM56.8753 65.5264C56.8753 67.4258 57.2309 68.8502 57.9568 69.7999C58.6679 70.7644 59.7494 71.2392 61.1717 71.2392C64.031 71.2392 65.468 69.3399 65.468 65.5264C65.468 61.713 64.0458 59.7988 61.2013 59.7988C59.7791 59.7988 58.6976 60.2736 57.9716 61.2381C57.2457 62.2026 56.8901 63.6271 56.8901 65.5264H56.8753Z" fill="#808DF6"/>
<path d="M86.5205 57.0685V68.0341C86.5205 69.2806 86.239 70.3786 85.6761 71.3283C85.1131 72.2779 84.3131 72.9902 83.2464 73.4947C82.1945 73.9992 80.9353 74.2514 79.4982 74.2514C77.3204 74.2514 75.6315 73.6876 74.4315 72.5747C73.2314 71.4618 72.624 69.9334 72.624 67.9896V57.0685H76.1944V67.4406C76.1944 68.7464 76.4611 69.7109 76.9796 70.3192C77.4982 70.9276 78.3723 71.2392 79.5871 71.2392C80.8019 71.2392 81.6167 70.9276 82.1353 70.3192C82.6686 69.7109 82.9353 68.7464 82.9353 67.4258V57.0685H86.5057H86.5205Z" fill="#808DF6"/>
<path d="M100.313 57.0685H103.943L98.1946 74.014H94.2834L88.5352 57.0685H92.1648L95.3501 67.1587C95.5279 67.7522 95.7056 68.4496 95.8982 69.236C96.0908 70.0225 96.2093 70.5863 96.2538 70.8831C96.3427 70.1709 96.6242 68.9244 97.1279 67.1438L100.328 57.0537L100.313 57.0685Z" fill="#808DF6"/>
<path d="M106.062 74.014V57.0685H109.647V74.014H106.062Z" fill="#808DF6"/>
<path d="M117.498 67.5148V74.014H113.913V57.0685H118.846C121.143 57.0685 122.847 57.484 123.958 58.3298C125.054 59.1756 125.617 60.4369 125.617 62.1433C125.617 63.1375 125.335 64.0278 124.802 64.7994C124.254 65.5709 123.484 66.1793 122.476 66.6245C125.024 70.438 126.684 72.9011 127.454 74.014H123.469L119.424 67.5148H117.513H117.498ZM117.498 64.5916H118.654C119.795 64.5916 120.624 64.3987 121.172 64.0278C121.706 63.6568 121.987 63.0484 121.987 62.2471C121.987 61.4459 121.706 60.8672 121.158 60.5259C120.609 60.1846 119.75 60.0214 118.595 60.0214H117.513V64.6065L117.498 64.5916Z" fill="#808DF6"/>
<path d="M398.035 74.014H394.45V60.0511H389.857V57.0537H402.628V60.0511H398.035V74.014Z" fill="#009993"/>
<path d="M414.984 74.014H405.235V57.0685H414.984V60.0065H408.821V63.731H414.554V66.669H408.821V71.0463H414.984V74.014Z" fill="#009993"/>
<path d="M428.495 69.3102C428.495 70.8386 427.947 72.0405 426.851 72.9308C425.754 73.8211 424.228 74.2514 422.258 74.2514C420.45 74.2514 418.85 73.9101 417.473 73.2276V69.8889C418.613 70.3934 419.576 70.7644 420.376 70.9721C421.176 71.1799 421.888 71.2837 422.539 71.2837C423.325 71.2837 423.932 71.1353 424.347 70.8386C424.762 70.5418 424.984 70.0967 424.984 69.4883C424.984 69.1618 424.895 68.8651 424.702 68.598C424.525 68.3457 424.243 68.0935 423.888 67.8561C423.532 67.6186 422.791 67.2328 421.695 66.7135C420.658 66.2238 419.888 65.7638 419.369 65.3038C418.85 64.8587 418.436 64.3394 418.125 63.7458C417.813 63.1523 417.665 62.4549 417.665 61.6536C417.665 60.1549 418.169 58.9827 419.191 58.1221C420.213 57.2614 421.606 56.8311 423.399 56.8311C424.273 56.8311 425.117 56.935 425.917 57.1427C426.717 57.3505 427.547 57.6472 428.421 58.0182L427.265 60.8078C426.362 60.4368 425.621 60.1846 425.028 60.0362C424.436 59.8878 423.858 59.8136 423.28 59.8136C422.599 59.8136 422.08 59.9769 421.725 60.2885C421.354 60.6001 421.176 61.0155 421.176 61.5349C421.176 61.8465 421.25 62.1284 421.399 62.3658C421.547 62.6033 421.784 62.8258 422.095 63.0484C422.406 63.271 423.176 63.6716 424.376 64.2355C425.962 64.9922 427.043 65.749 427.636 66.5206C428.228 67.2774 428.51 68.2122 428.51 69.3251L428.495 69.3102Z" fill="#009993"/>
<path d="M438.095 74.014H434.51V60.0511H429.917V57.0537H442.688V60.0511H438.095V74.014Z" fill="#009993"/>
<path d="M455.651 74.014L454.422 69.9779H448.258L447.029 74.014H443.162L449.133 56.9943H453.518L459.518 74.014H455.651ZM453.562 66.9657C452.421 63.3155 451.784 61.2381 451.651 60.7633C451.503 60.2885 451.399 59.9027 451.34 59.6207C451.088 60.6149 450.362 63.0632 449.147 66.9657H453.562Z" fill="#009993"/>
<path d="M465.237 67.5148V74.014H461.651V57.0685H466.585C468.881 57.0685 470.585 57.484 471.696 58.3298C472.807 59.1756 473.355 60.4369 473.355 62.1433C473.355 63.1375 473.089 64.0278 472.54 64.7994C471.992 65.5709 471.222 66.1793 470.214 66.6245C472.763 70.438 474.422 72.9011 475.192 74.014H471.207L467.163 67.5148H465.251H465.237ZM465.237 64.5916H466.392C467.533 64.5916 468.363 64.3987 468.911 64.0278C469.444 63.6568 469.726 63.0484 469.726 62.2471C469.726 61.4459 469.444 60.8672 468.896 60.5259C468.348 60.1846 467.488 60.0214 466.333 60.0214H465.251V64.6065L465.237 64.5916Z" fill="#009993"/>
<path d="M236.122 131.587C234.773 131.587 233.721 132.092 232.981 133.115C232.24 134.139 231.87 135.549 231.87 137.359C231.87 141.143 233.292 143.027 236.122 143.027C237.307 143.027 238.744 142.731 240.433 142.137V145.149C239.04 145.728 237.499 146.025 235.781 146.025C233.321 146.025 231.44 145.283 230.136 143.784C228.833 142.285 228.181 140.149 228.181 137.344C228.181 135.579 228.507 134.035 229.144 132.715C229.781 131.394 230.699 130.37 231.899 129.673C233.099 128.961 234.507 128.619 236.122 128.619C237.736 128.619 239.41 129.02 241.07 129.806L239.914 132.73C239.277 132.433 238.64 132.166 238.003 131.943C237.366 131.721 236.729 131.602 236.122 131.602V131.587Z" fill="#FD78AD"/>
<path d="M247.618 139.288V145.787H244.033V128.842H248.967C251.263 128.842 252.967 129.257 254.078 130.103C255.174 130.949 255.737 132.21 255.737 133.917C255.737 134.911 255.456 135.801 254.922 136.573C254.374 137.344 253.604 137.953 252.596 138.398C255.144 142.211 256.804 144.674 257.574 145.787H253.589L249.544 139.288H247.633H247.618ZM247.618 136.365H248.774C249.915 136.365 250.744 136.172 251.293 135.801C251.826 135.43 252.107 134.822 252.107 134.021C252.107 133.219 251.826 132.641 251.278 132.299C250.73 131.958 249.87 131.795 248.715 131.795H247.633V136.38L247.618 136.365Z" fill="#FD78AD"/>
<path d="M259.678 145.787V128.842H263.263V145.787H259.678Z" fill="#FD78AD"/>
<path d="M277.885 145.787L276.655 141.751H270.492L269.262 145.787H265.396L271.366 128.768H275.751L281.751 145.787H277.885ZM275.796 138.739C274.655 135.089 274.018 133.011 273.885 132.537C273.736 132.062 273.633 131.676 273.573 131.394C273.322 132.388 272.596 134.837 271.381 138.739H275.796Z" fill="#FD78AD"/>
<path d="M287.47 139.288V145.787H283.885V128.842H288.818C291.115 128.842 292.818 129.257 293.929 130.103C295.026 130.949 295.589 132.21 295.589 133.917C295.589 134.911 295.307 135.801 294.774 136.573C294.226 137.344 293.455 137.953 292.448 138.398C294.996 142.211 296.655 144.674 297.426 145.787H293.44L289.396 139.288H287.485H287.47ZM287.47 136.365H288.626C289.766 136.365 290.596 136.172 291.144 135.801C291.677 135.43 291.959 134.822 291.959 134.021C291.959 133.219 291.677 132.641 291.129 132.299C290.581 131.958 289.722 131.795 288.566 131.795H287.485V136.38L287.47 136.365Z" fill="#FD78AD"/>
</g>
<defs>
<clipPath id="clip0_89_2669">
<rect width="519" height="191" fill="white"/>
</clipPath>
</defs>
</svg>
