<svg width="499" height="269" viewBox="0 0 499 269" fill="none" xmlns="http://www.w3.org/2000/svg">
<g clip-path="url(#clip0_89_3046)">
<path fill-rule="evenodd" clip-rule="evenodd" d="M29.3897 104.25C29.3897 104.25 21.8497 107.72 19.6797 108.22C14.2797 109.47 7.35967 109.95 5.69967 106.57C4.30967 103.74 9.04967 100.22 14.7097 100.01C19.8497 99.82 25.3897 101.56 29.3797 104.25H29.3897Z" fill="#7FC7B2"/>
<path fill-rule="evenodd" clip-rule="evenodd" d="M28.6701 103.75C28.6701 103.75 35.0701 98.42 36.4701 96.67C39.9701 92.3 43.4501 86.22 41.2001 83.22C39.3201 80.7 34.1101 83.45 31.4201 88.52C28.9801 93.12 28.0601 98.93 28.6601 103.76L28.6701 103.75Z" fill="#7FC7B2"/>
<path fill-rule="evenodd" clip-rule="evenodd" d="M41.5297 116.01C41.5297 116.01 47.0597 109.74 48.1797 107.8C50.9797 102.94 53.5097 96.38 50.8397 93.76C48.5997 91.56 43.8697 95.09 41.9697 100.51C40.2497 105.43 40.2097 111.33 41.5297 116.01Z" fill="#7FC7B2"/>
<path fill-rule="evenodd" clip-rule="evenodd" d="M54.6199 126.79C54.6199 126.79 59.1399 119.74 59.9599 117.64C61.9999 112.4 63.5199 105.52 60.4899 103.34C57.9499 101.51 53.7999 105.74 52.7399 111.39C51.7799 116.53 52.6199 122.36 54.6199 126.78V126.79Z" fill="#7FC7B2"/>
<path fill-rule="evenodd" clip-rule="evenodd" d="M66.6502 136.82C66.6502 136.82 71.0602 129.7 71.8502 127.59C73.8102 122.32 75.2202 115.42 72.1602 113.28C69.6002 111.49 65.5102 115.78 64.5402 121.46C63.6602 126.61 64.5902 132.43 66.6602 136.82H66.6502Z" fill="#7FC7B2"/>
<path fill-rule="evenodd" clip-rule="evenodd" d="M41.6 115.83C41.6 115.83 34.78 120.6 32.74 121.48C27.64 123.68 20.92 125.39 18.71 122.36C16.85 119.82 20.9 115.5 26.43 114.28C31.45 113.18 37.21 113.89 41.6 115.82V115.83Z" fill="#7FC7B2"/>
<path fill-rule="evenodd" clip-rule="evenodd" d="M54.9702 127.17C54.9702 127.17 49.0902 133.09 47.2402 134.33C42.6102 137.41 36.2902 140.3 33.5902 137.71C31.3202 135.54 34.5602 130.56 39.7902 128.37C44.5402 126.38 50.3202 126.05 54.9702 127.17Z" fill="#7FC7B2"/>
<path fill-rule="evenodd" clip-rule="evenodd" d="M67.6404 136.52C67.6404 136.52 61.7104 142.39 59.8404 143.61C55.1804 146.65 48.8404 149.48 46.1604 146.87C43.9104 144.68 47.1904 139.73 52.4404 137.58C57.2104 135.63 62.9904 135.36 67.6404 136.52Z" fill="#7FC7B2"/>
<path fill-rule="evenodd" clip-rule="evenodd" d="M20.2999 94.63C20.2999 94.63 13.1499 90.32 11.4999 88.81C7.36985 85.02 2.99986 79.53 4.74986 76.22C6.21986 73.45 11.7999 75.38 15.2299 79.98C18.3499 84.16 20.1599 89.77 20.2999 94.62V94.63Z" fill="#7FC7B2"/>
<path fill-rule="evenodd" clip-rule="evenodd" d="M18.84 94.1C18.84 94.1 36.9501 113.58 56.5201 129.65C66.5401 137.88 76.95 145.22 85.53 148.65C86.09 148.87 86.73 148.6 86.96 148.04C87.18 147.48 86.91 146.84 86.35 146.61C77.94 143.25 67.7401 136.03 57.91 127.96C38.4401 111.98 20.43 92.62 20.43 92.62C20.03 92.19 19.3401 92.16 18.9101 92.57C18.4801 92.97 18.45 93.66 18.86 94.09L18.84 94.1Z" fill="#3D937A"/>
<path fill-rule="evenodd" clip-rule="evenodd" d="M459.04 54.46C459.04 54.46 467.01 56.89 469.23 57.09C474.77 57.6 481.69 57.14 482.87 53.57C483.85 50.58 478.66 47.72 473.01 48.28C467.88 48.79 462.63 51.26 459.04 54.46Z" fill="#7FC7B2"/>
<path fill-rule="evenodd" clip-rule="evenodd" d="M459.69 53.86C459.69 53.86 452.59 49.43 450.95 47.89C446.87 44.03 442.56 38.46 444.37 35.18C445.89 32.43 451.44 34.46 454.82 39.12C457.88 43.35 459.61 49 459.69 53.87V53.86Z" fill="#7FC7B2"/>
<path fill-rule="evenodd" clip-rule="evenodd" d="M448.64 67.77C448.64 67.77 442.28 62.3 440.89 60.52C437.43 56.08 434 49.91 436.28 46.95C438.19 44.47 443.38 47.33 446.03 52.45C448.43 57.1 449.29 62.95 448.64 67.77Z" fill="#7FC7B2"/>
<path fill-rule="evenodd" clip-rule="evenodd" d="M437.16 80.23C437.16 80.23 431.68 73.84 430.58 71.87C427.82 66.94 425.35 60.33 428.05 57.75C430.31 55.59 435.02 59.23 436.87 64.69C438.55 69.66 438.53 75.56 437.16 80.22V80.23Z" fill="#7FC7B2"/>
<path fill-rule="evenodd" clip-rule="evenodd" d="M426.63 91.8C426.63 91.8 421.25 85.32 420.18 83.34C417.5 78.37 415.13 71.71 417.87 69.19C420.16 67.07 424.82 70.78 426.58 76.28C428.18 81.27 428.07 87.18 426.63 91.81V91.8Z" fill="#7FC7B2"/>
<path fill-rule="evenodd" clip-rule="evenodd" d="M448.55 67.6C448.55 67.6 455.99 71.41 458.13 72.01C463.5 73.51 470.4 74.29 472.18 70.99C473.67 68.22 469.04 64.48 463.39 64.02C458.25 63.6 452.64 65.09 448.55 67.6Z" fill="#7FC7B2"/>
<path fill-rule="evenodd" clip-rule="evenodd" d="M436.87 80.65C436.87 80.65 443.54 85.73 445.55 86.71C450.58 89.15 457.25 91.16 459.57 88.23C461.52 85.77 457.61 81.26 452.11 79.8C447.12 78.47 441.33 78.92 436.87 80.66V80.65Z" fill="#7FC7B2"/>
<path fill-rule="evenodd" clip-rule="evenodd" d="M425.6 91.64C425.6 91.64 432.31 96.66 434.33 97.62C439.38 100.01 446.06 101.96 448.36 99.01C450.28 96.54 446.34 92.06 440.83 90.64C435.83 89.35 430.05 89.86 425.6 91.63V91.64Z" fill="#7FC7B2"/>
<path fill-rule="evenodd" clip-rule="evenodd" d="M466.71 43.69C466.71 43.69 473.2 38.45 474.63 36.73C478.2 32.41 481.77 26.37 479.56 23.33C477.71 20.78 472.45 23.45 469.69 28.48C467.18 33.04 466.17 38.86 466.71 43.7V43.69Z" fill="#7FC7B2"/>
<path fill-rule="evenodd" clip-rule="evenodd" d="M466.32 41.73C466.32 41.73 451.15 63.37 434.07 81.86C425.44 91.19 416.34 99.73 408.46 104.2C407.93 104.5 407.75 105.17 408.05 105.7C408.35 106.23 409.02 106.41 409.54 106.11C417.57 101.55 426.87 92.86 435.67 83.34C452.84 64.74 468.09 42.97 468.09 42.97C468.43 42.48 468.31 41.81 467.83 41.47C467.34 41.13 466.67 41.25 466.33 41.73H466.32Z" fill="#3D937A"/>
<path fill-rule="evenodd" clip-rule="evenodd" d="M87.1705 84.35C51.8905 94.11 46.4705 76.74 32.7105 52.32C29.8105 47.17 26.3705 42.29 22.0205 38.22C20.5505 36.85 15.2705 33.61 15.8305 33.39C21.1905 31.34 25.2805 30.67 29.1605 30.1C49.2505 27.14 69.2605 28.34 84.5505 43.02C90.4805 48.71 93.9505 56.48 94.8605 64.52C95.1905 67.4 93.6905 75.05 93.8905 76C94.8705 80.81 96.1705 81.86 87.1805 84.35H87.1705Z" fill="#49B99D"/>
<mask id="mask0_89_3046" style="mask-type:luminance" maskUnits="userSpaceOnUse" x="15" y="28" width="80" height="60">
<path d="M87.1705 84.35C51.8905 94.11 46.4705 76.74 32.7105 52.32C29.8105 47.17 26.3705 42.29 22.0205 38.22C20.5505 36.85 15.2705 33.61 15.8305 33.39C21.1905 31.34 25.2805 30.67 29.1605 30.1C49.2505 27.14 69.2605 28.34 84.5505 43.02C90.4805 48.71 93.9505 56.48 94.8605 64.52C95.1905 67.4 93.6905 75.05 93.8905 76C94.8705 80.81 96.1705 81.86 87.1805 84.35H87.1705Z" fill="white"/>
</mask>
<g mask="url(#mask0_89_3046)">
<path fill-rule="evenodd" clip-rule="evenodd" d="M87.9905 88.09C87.9905 88.09 80.9805 59.09 48.2705 47.83C48.2705 47.83 75.6805 46.51 99.2605 82.97L87.9905 88.1V88.09Z" fill="#129574"/>
</g>
<path fill-rule="evenodd" clip-rule="evenodd" d="M84.97 233.38C71.27 235.26 20.47 245.44 0.290039 160.3C0.290039 160.3 82.79 137.89 107.19 200.49L107.62 226.51C107.62 226.51 92.86 232.29 84.96 233.38H84.97Z" fill="#1AA884"/>
<mask id="mask1_89_3046" style="mask-type:luminance" maskUnits="userSpaceOnUse" x="0" y="156" width="108" height="79">
<path d="M84.97 233.38C71.27 235.26 20.47 245.44 0.290039 160.3C0.290039 160.3 82.79 137.89 107.19 200.49L107.62 226.51C107.62 226.51 92.86 232.29 84.96 233.38H84.97Z" fill="white"/>
</mask>
<g mask="url(#mask1_89_3046)">
<path fill-rule="evenodd" clip-rule="evenodd" d="M91.8304 214.09C91.8304 214.09 35.2104 191.39 13.8604 168.59C13.8604 168.59 74.5604 205.88 95.3604 209.8L91.8304 214.09Z" fill="#0B6945"/>
</g>
<path fill-rule="evenodd" clip-rule="evenodd" d="M53.3102 193.96C53.3102 193.96 44.2302 200.77 29.4502 201.98C29.4502 201.98 41.8902 197.94 50.4502 191.9L53.3102 193.95V193.96Z" fill="#0C6945"/>
<path fill-rule="evenodd" clip-rule="evenodd" d="M41.8299 186.88C41.8299 186.88 42.1099 175.67 34.4199 163.22C34.4199 163.22 38.3999 175.48 38.4599 185.82L41.8299 186.88Z" fill="#0C6945"/>
<path fill-rule="evenodd" clip-rule="evenodd" d="M75.5496 204.55C75.5496 204.55 63.5996 212.41 45.0596 214.99C45.0596 214.99 60.9496 209.69 72.1796 202.68L75.5496 204.55Z" fill="#0C6945"/>
<path fill-rule="evenodd" clip-rule="evenodd" d="M63.6303 198.32C63.6303 198.32 63.0903 184.21 54.3203 167.97C54.3203 167.97 59.2903 183.7 60.1103 196.74L63.6303 198.32Z" fill="#0C6945"/>
<path fill-rule="evenodd" clip-rule="evenodd" d="M390.74 142.51C390.74 142.51 402.97 96.16 467.64 109.91C467.64 109.91 456.77 171.41 406.18 167.61L390.73 142.51H390.74Z" fill="#1AA884"/>
<mask id="mask2_89_3046" style="mask-type:luminance" maskUnits="userSpaceOnUse" x="390" y="107" width="78" height="61">
<path d="M390.74 142.51C390.74 142.51 402.97 96.16 467.64 109.91C467.64 109.91 456.77 171.41 406.18 167.61L390.73 142.51H390.74Z" fill="white"/>
</mask>
<g mask="url(#mask2_89_3046)">
<path fill-rule="evenodd" clip-rule="evenodd" d="M401.761 153.15C401.761 153.15 435.281 123.04 457.661 116.21C457.661 116.21 412.871 144.38 403.571 156.84L401.761 153.15Z" fill="#0B6945"/>
</g>
<path fill-rule="evenodd" clip-rule="evenodd" d="M427.77 134.16C427.77 134.16 425.99 126.01 429.86 115.88C429.86 115.88 428.67 125.37 430.08 132.93L427.77 134.16Z" fill="#0C6945"/>
<path fill-rule="evenodd" clip-rule="evenodd" d="M436.25 128.84C436.25 128.84 443.83 132.59 454.8 131.47C454.8 131.47 445.15 130.2 438.05 126.95L436.25 128.84Z" fill="#0C6945"/>
<path fill-rule="evenodd" clip-rule="evenodd" d="M413.46 145.45C413.46 145.45 411.88 135.07 416 122.03C416 122.03 414.58 134.19 415.81 143.82L413.46 145.45Z" fill="#0C6945"/>
<path fill-rule="evenodd" clip-rule="evenodd" d="M421.51 139.57C421.51 139.57 431.34 143.69 445.24 143.07C445.24 143.07 432.9 141.35 423.71 137.75L421.51 139.57Z" fill="#0C6945"/>
<path fill-rule="evenodd" clip-rule="evenodd" d="M401.86 237.62C445.85 253.83 454.7 232.37 475 202.86C479.28 196.64 484.21 190.82 490.23 186.12C492.26 184.54 499.37 181 498.67 180.66C492.05 177.48 486.9 176.19 482.01 175.04C456.67 169.11 430.97 168.47 409.8 185.45C401.59 192.03 396.3 201.51 394.25 211.62C393.51 215.24 394.5 225.07 394.21 226.3C393.08 231.2 394.15 234.78 401.86 237.63V237.62Z" fill="#49B99D"/>
<mask id="mask3_89_3046" style="mask-type:luminance" maskUnits="userSpaceOnUse" x="393" y="171" width="106" height="73">
<path d="M401.86 237.62C445.85 253.83 454.7 232.37 475 202.86C479.28 196.64 484.21 190.82 490.23 186.12C492.26 184.54 499.37 181 498.67 180.66C492.05 177.48 486.9 176.19 482.01 175.04C456.67 169.11 430.97 168.47 409.8 185.45C401.59 192.03 396.3 201.51 394.25 211.62C393.51 215.24 394.5 225.07 394.21 226.3C393.08 231.2 394.15 234.78 401.86 237.63V237.62Z" fill="white"/>
</mask>
<g mask="url(#mask3_89_3046)">
<path fill-rule="evenodd" clip-rule="evenodd" d="M398.94 244.43C398.94 244.43 411.4 207.03 454.66 195.61C454.66 195.61 419.7 191.04 385.12 236.52L398.94 244.43Z" fill="#129574"/>
</g>
<path fill-rule="evenodd" clip-rule="evenodd" d="M414.49 10.26C414.49 4.59 409.9 0 404.23 0H90.8303C85.1603 0 80.5703 4.59 80.5703 10.26V221.22C80.5703 226.89 85.1603 231.48 90.8303 231.48H404.22C409.89 231.48 414.48 226.89 414.48 221.22V10.26H414.49Z" fill="#32698C"/>
<path fill-rule="evenodd" clip-rule="evenodd" d="M397.63 212.22V20.67H97.1396V212.22H397.63Z" fill="white"/>
<path fill-rule="evenodd" clip-rule="evenodd" d="M430.55 228.67H62.8203V240.76C62.8203 244.68 64.3803 248.45 67.1503 251.22C69.9203 253.99 73.6903 255.55 77.6103 255.55H415.76C419.68 255.55 423.45 253.99 426.22 251.22C428.99 248.45 430.55 244.68 430.55 240.76V228.67Z" fill="#498BB5"/>
<mask id="mask4_89_3046" style="mask-type:luminance" maskUnits="userSpaceOnUse" x="62" y="228" width="369" height="28">
<path d="M430.55 228.67H62.8203V240.76C62.8203 244.68 64.3803 248.45 67.1503 251.22C69.9203 253.99 73.6903 255.55 77.6103 255.55H415.76C419.68 255.55 423.45 253.99 426.22 251.22C428.99 248.45 430.55 244.68 430.55 240.76V228.67Z" fill="white"/>
</mask>
<g mask="url(#mask4_89_3046)">
<path fill-rule="evenodd" clip-rule="evenodd" d="M277.971 224.65H214.141V232.52C214.141 233.32 214.461 234.08 215.021 234.64C215.581 235.2 216.341 235.52 217.141 235.52H274.981C275.781 235.52 276.541 235.2 277.101 234.64C277.661 234.08 277.981 233.31 277.981 232.52V224.65H277.971Z" fill="#91D0F8"/>
<path fill-rule="evenodd" clip-rule="evenodd" d="M445.931 243.03H54.5508V268.08H445.931V243.03Z" fill="#32698C"/>
</g>
<path fill-rule="evenodd" clip-rule="evenodd" d="M352.31 32.15H294.33V84.67H352.31V32.15Z" fill="#9DD8FF"/>
<path fill-rule="evenodd" clip-rule="evenodd" d="M352.45 91.09H294.46V143.61H352.45V91.09Z" fill="#9DD8FF"/>
<path fill-rule="evenodd" clip-rule="evenodd" d="M352.45 150.43H294.46V202.95H352.45V150.43Z" fill="#9DD8FF"/>
<path fill-rule="evenodd" clip-rule="evenodd" d="M284.97 32.11H116.521V59.39H284.97V32.11Z" fill="#E53E50"/>
<path fill-rule="evenodd" clip-rule="evenodd" d="M284.97 67.5H133.92V69.92H284.97V67.5Z" fill="#BDC0C2"/>
<path fill-rule="evenodd" clip-rule="evenodd" d="M195.7 147.73H133.71V150.15H195.7V147.73Z" fill="#BDC0C2"/>
<path fill-rule="evenodd" clip-rule="evenodd" d="M284.03 148.11H204.85V150.52H284.03V148.11Z" fill="#BDC0C2"/>
<path fill-rule="evenodd" clip-rule="evenodd" d="M393.82 91.51H359.37V93.45H393.82V91.51Z" fill="#BDC0C2"/>
<path fill-rule="evenodd" clip-rule="evenodd" d="M391.53 32.68H358.73V34.49H391.53V32.68Z" fill="#BDC0C2"/>
<path fill-rule="evenodd" clip-rule="evenodd" d="M284.97 76.31H116.521V78.73H284.97V76.31Z" fill="#BDC0C2"/>
<path fill-rule="evenodd" clip-rule="evenodd" d="M195.701 156.54H116.521V158.96H195.701V156.54Z" fill="#BDC0C2"/>
<path fill-rule="evenodd" clip-rule="evenodd" d="M284.03 156.91H204.85V159.33H284.03V156.91Z" fill="#BDC0C2"/>
<path fill-rule="evenodd" clip-rule="evenodd" d="M393.82 98.59H359.37V100.53H393.82V98.59Z" fill="#BDC0C2"/>
<path fill-rule="evenodd" clip-rule="evenodd" d="M391.53 39.27H358.73V41.07H391.53V39.27Z" fill="#BDC0C2"/>
<path fill-rule="evenodd" clip-rule="evenodd" d="M284.97 85.12H116.521V87.54H284.97V85.12Z" fill="#BDC0C2"/>
<path fill-rule="evenodd" clip-rule="evenodd" d="M195.701 165.35H116.521V167.77H195.701V165.35Z" fill="#BDC0C2"/>
<path fill-rule="evenodd" clip-rule="evenodd" d="M284.03 165.72H204.85V168.14H284.03V165.72Z" fill="#BDC0C2"/>
<path fill-rule="evenodd" clip-rule="evenodd" d="M393.82 105.66H359.37V107.6H393.82V105.66Z" fill="#BDC0C2"/>
<path fill-rule="evenodd" clip-rule="evenodd" d="M391.53 45.85H358.73V47.66H391.53V45.85Z" fill="#BDC0C2"/>
<path fill-rule="evenodd" clip-rule="evenodd" d="M284.97 93.93H116.521V96.35H284.97V93.93Z" fill="#BDC0C2"/>
<path fill-rule="evenodd" clip-rule="evenodd" d="M195.701 174.16H116.521V176.58H195.701V174.16Z" fill="#BDC0C2"/>
<path fill-rule="evenodd" clip-rule="evenodd" d="M284.03 174.53H204.85V176.95H284.03V174.53Z" fill="#BDC0C2"/>
<path fill-rule="evenodd" clip-rule="evenodd" d="M393.82 112.74H359.37V114.68H393.82V112.74Z" fill="#BDC0C2"/>
<path fill-rule="evenodd" clip-rule="evenodd" d="M391.53 52.44H358.73V54.25H391.53V52.44Z" fill="#BDC0C2"/>
<path fill-rule="evenodd" clip-rule="evenodd" d="M284.97 102.74H116.521V105.16H284.97V102.74Z" fill="#BDC0C2"/>
<path fill-rule="evenodd" clip-rule="evenodd" d="M195.701 182.97H116.521V185.39H195.701V182.97Z" fill="#BDC0C2"/>
<path fill-rule="evenodd" clip-rule="evenodd" d="M284.03 183.34H204.85V185.76H284.03V183.34Z" fill="#BDC0C2"/>
<path fill-rule="evenodd" clip-rule="evenodd" d="M393.82 119.81H359.37V121.76H393.82V119.81Z" fill="#BDC0C2"/>
<path fill-rule="evenodd" clip-rule="evenodd" d="M393.82 150.69H359.37V152.63H393.82V150.69Z" fill="#BDC0C2"/>
<path fill-rule="evenodd" clip-rule="evenodd" d="M374.48 59.03H358.73V60.83H374.48V59.03Z" fill="#BDC0C2"/>
<path fill-rule="evenodd" clip-rule="evenodd" d="M284.97 111.55H116.521V113.96H284.97V111.55Z" fill="#BDC0C2"/>
<path fill-rule="evenodd" clip-rule="evenodd" d="M195.701 191.78H116.521V194.2H195.701V191.78Z" fill="#BDC0C2"/>
<path fill-rule="evenodd" clip-rule="evenodd" d="M284.03 192.15H204.85V194.57H284.03V192.15Z" fill="#BDC0C2"/>
<path fill-rule="evenodd" clip-rule="evenodd" d="M393.82 126.89H359.37V128.83H393.82V126.89Z" fill="#BDC0C2"/>
<path fill-rule="evenodd" clip-rule="evenodd" d="M393.82 157.76H359.37V159.7H393.82V157.76Z" fill="#BDC0C2"/>
<path fill-rule="evenodd" clip-rule="evenodd" d="M284.97 120.36H116.521V122.77H284.97V120.36Z" fill="#BDC0C2"/>
<path fill-rule="evenodd" clip-rule="evenodd" d="M195.701 200.59H116.521V203.01H195.701V200.59Z" fill="#BDC0C2"/>
<path fill-rule="evenodd" clip-rule="evenodd" d="M284.03 200.96H204.85V203.38H284.03V200.96Z" fill="#BDC0C2"/>
<path fill-rule="evenodd" clip-rule="evenodd" d="M384.35 133.97H359.37V135.91H384.35V133.97Z" fill="#BDC0C2"/>
<path fill-rule="evenodd" clip-rule="evenodd" d="M384.35 164.84H359.37V166.78H384.35V164.84Z" fill="#BDC0C2"/>
<path fill-rule="evenodd" clip-rule="evenodd" d="M253.501 129.17H116.521V131.58H253.501V129.17Z" fill="#BDC0C2"/>
<path fill-rule="evenodd" clip-rule="evenodd" d="M153.54 253.72C153.54 253.72 152.88 257.02 153.01 258.54C153.25 261.36 159.52 261.24 158.16 263.98C157.84 264.62 152.73 263.5 147.12 261.96C146.5 261.79 146.31 260.52 146.8 259.5C147.03 259.03 147.49 258.78 147.74 258.33C147.99 257.88 148.66 255.64 148.66 255.64L149.26 252.74L153.54 253.71V253.72Z" fill="black"/>
<path fill-rule="evenodd" clip-rule="evenodd" d="M168.05 252.77C168.05 252.77 168.48 256.11 169.09 257.51C170.22 260.11 176.13 258.07 175.72 261.09C175.62 261.79 170.41 262.3 164.59 262.58C163.94 262.61 163.36 261.47 163.5 260.34C163.56 259.82 163.92 259.44 164.01 258.94C164.1 258.44 164.03 256.11 164.03 256.11L163.68 253.17L168.05 252.77Z" fill="black"/>
<path fill-rule="evenodd" clip-rule="evenodd" d="M147.12 214.36C147.12 214.36 165.25 215.86 166.82 222.05C168.78 229.79 169.64 257.86 169.64 257.86L163.53 258.41C163.53 258.41 159.89 232.05 159.24 229.15C158.7 226.76 143.54 228.42 140.25 225.67C136.74 222.74 136.35 218.92 136.9 214.39L147.11 214.36H147.12Z" fill="#00315F"/>
<path fill-rule="evenodd" clip-rule="evenodd" d="M139.75 213.87C139.75 213.87 156.96 216.15 158.65 221.96C160.18 227.23 153.4 258.46 153.4 258.46L147.5 257.51C147.5 257.51 149.21 232.06 149.01 229.02C148.96 228.32 134.1 229.91 130.96 227.07C127.6 224.04 128.15 218.62 128.62 213.97L139.75 213.88V213.87Z" fill="#00315F"/>
<path fill-rule="evenodd" clip-rule="evenodd" d="M152.13 202.33C152.96 203.15 149.65 208.59 148.24 207.18C146.45 205.39 144.8 198.1 144.51 195.91C144.16 193.24 147.59 193.42 150.81 192.99C150.97 192.97 151.66 201.87 152.13 202.33Z" fill="#FFA998"/>
<path fill-rule="evenodd" clip-rule="evenodd" d="M136.32 182.75C136.32 182.75 138.66 181.36 138.93 177.6L142.25 177.82C142.25 177.82 141.67 180.7 143.92 183.17C143.92 183.17 140.38 185.42 136.32 182.75Z" fill="#FFA998"/>
<mask id="mask5_89_3046" style="mask-type:luminance" maskUnits="userSpaceOnUse" x="136" y="177" width="8" height="8">
<path d="M136.32 182.75C136.32 182.75 138.66 181.36 138.93 177.6L142.25 177.82C142.25 177.82 141.67 180.7 143.92 183.17C143.92 183.17 140.38 185.42 136.32 182.75Z" fill="white"/>
</mask>
<g mask="url(#mask5_89_3046)">
<path fill-rule="evenodd" clip-rule="evenodd" d="M137.47 177.76C137.47 177.76 140.82 180.71 143.68 181.11C143.68 181.11 143.7 178.55 143.39 178.61C143.08 178.66 138.28 176.21 138.28 176.21L137.46 177.77L137.47 177.76Z" fill="#F2907D"/>
</g>
<path fill-rule="evenodd" clip-rule="evenodd" d="M147.05 214.45C147.89 211.55 146.86 194.6 146.86 194.6L151.78 193.92C151.78 193.92 151.09 186.26 143.38 182.1C143.38 182.1 140.5 184.51 136.81 181.81C136.81 181.81 132.03 182.57 129.9 185.78C128.19 188.37 127.43 191.86 127.42 195.97C127.42 197.36 128.46 201.84 128.58 205.49C128.75 211.12 127.19 213.98 127.71 214.71C129.83 217.68 146.21 217.34 147.06 214.44L147.05 214.45Z" fill="#E53E50"/>
<path fill-rule="evenodd" clip-rule="evenodd" d="M135.29 204.42C135.86 205.43 144.55 212.29 146.97 213.55C148.27 214.22 148.67 217.88 146.97 217.46C144.07 216.76 133.25 210.1 131.84 208.69C130.05 206.9 128.71 197.65 128.54 195.45C128.52 195.15 130.99 195.07 133.6 195.19C133.76 195.19 134.38 202.82 135.28 204.42H135.29Z" fill="#FFA998"/>
<path fill-rule="evenodd" clip-rule="evenodd" d="M167.85 218.66C167.85 218.19 167.47 217.81 167 217.81H140.27C139.8 217.81 139.42 218.19 139.42 218.66C139.42 219.13 139.8 219.51 140.27 219.51H167C167.47 219.51 167.85 219.13 167.85 218.66Z" fill="#6CB2DE"/>
<path fill-rule="evenodd" clip-rule="evenodd" d="M170.02 203.76C170.02 201.81 168.44 200.23 166.49 200.22C160.75 200.22 149.79 200.22 147.42 200.22C147.16 200.22 146.93 200.41 146.89 200.67C146.48 203.22 144.43 215.79 143.95 218.75C143.92 218.91 143.97 219.06 144.07 219.18C144.17 219.3 144.32 219.37 144.48 219.37C147.45 219.38 160.18 219.43 166.47 219.46C167.41 219.46 168.31 219.09 168.98 218.43C169.65 217.77 170.02 216.87 170.02 215.93C170.02 212.47 170.02 207.23 170.02 203.77V203.76Z" fill="#6CB2DE"/>
<path fill-rule="evenodd" clip-rule="evenodd" d="M173.42 201.49C173.47 201.16 173.38 200.83 173.16 200.58C172.95 200.33 172.63 200.18 172.3 200.18C167.72 200.17 152.55 200.13 148.56 200.12C148 200.12 147.53 200.52 147.44 201.07C146.92 204.25 145.25 214.5 144.66 218.15C144.61 218.48 144.7 218.81 144.91 219.06C145.12 219.31 145.44 219.46 145.77 219.46C150.38 219.46 165.64 219.48 169.65 219.48C170.21 219.48 170.68 219.07 170.77 218.52C171.26 215.34 172.85 205.12 173.41 201.48L173.42 201.49Z" fill="#3880AD"/>
<path fill-rule="evenodd" clip-rule="evenodd" d="M158.84 208.01C157.17 208.01 155.81 208.78 155.81 209.73C155.81 210.68 157.17 211.45 158.84 211.45C160.51 211.45 161.87 210.68 161.87 209.73C161.87 208.78 160.51 208.01 158.84 208.01Z" fill="#043942"/>
<path fill-rule="evenodd" clip-rule="evenodd" d="M137.56 173.32C137.19 174.8 137.88 176.58 138.88 177.89C139.92 179.25 141.71 179.78 143.3 180.28C144.14 180.54 145.26 180.91 146.12 180.56C147.09 180.16 147.25 179.13 147.62 178.24C147.81 177.8 148.49 178.24 148.68 177.79C148.84 177.41 148.43 176.58 148.51 175.95C148.6 175.17 149.54 173.94 149.57 173.44C149.68 171.55 148.39 168.41 146.44 167.47C144.76 166.66 142.66 167.86 141.41 168.87C140.16 169.88 137.93 171.84 137.56 173.32Z" fill="#FFA998"/>
<path fill-rule="evenodd" clip-rule="evenodd" d="M139.98 165.52C137.79 162.51 136.37 164.88 133.79 165.59C132.22 166.02 131.51 164.98 129.52 165.88C128.16 166.5 128.86 169.11 127.63 170.03C126.63 170.78 124.69 170.74 124.06 171.88C123.45 172.97 124.18 174.81 123.66 175.95C122.73 177.96 119.38 178.15 119.63 181.03C119.95 184.68 125.87 186.19 127.93 183.68C128.79 182.64 127.3 179.91 128.35 178.96C129.55 177.87 131.78 178.84 132.71 177.25C133.56 175.79 131.85 173.77 133.35 172.52C134.26 171.76 135.98 171.96 137.23 171.49C138.89 170.87 138.75 169.04 139.66 167.76C140.1 167.14 140.29 166.47 139.99 165.52H139.98Z" fill="#560005"/>
<path fill-rule="evenodd" clip-rule="evenodd" d="M136.21 166.49C135.21 169.09 133.14 173.51 137.03 176.97C137.57 177.46 138.95 178.09 138.85 177.85C138.65 177.32 138.6 175.25 139.62 173.8C139.63 173.78 140.01 173.9 141.06 173.91C142.35 173.91 143.6 173.58 144.72 173.04C145.74 172.55 146.66 171.81 147.34 170.95C147.53 170.71 147.97 169.82 148.06 169.91C149.31 171.18 149.27 174 149.4 173.99C149.77 173.96 150.64 173.35 150.96 172.34C151.98 169.13 148.98 166.88 146.75 164.95C145.86 164.17 144.43 163.89 143.16 163.73C141.65 163.54 141.12 163.97 139.77 164.32C138.18 164.74 136.83 164.86 136.2 166.49H136.21Z" fill="#560005"/>
<path fill-rule="evenodd" clip-rule="evenodd" d="M305.03 89.66L300.24 94.89L321.58 113.7L326.37 108.46L305.03 89.66Z" fill="#4B4B4B"/>
<path fill-rule="evenodd" clip-rule="evenodd" d="M320.421 101.95L314.271 108.67C314.271 108.67 335.9 127.73 342.75 133.77C343.89 134.78 345.63 134.68 346.65 133.56C347.4 132.74 348.27 131.79 349.03 130.96C349.54 130.41 349.8 129.67 349.76 128.93C349.72 128.18 349.38 127.48 348.82 126.99C341.88 120.88 320.421 101.96 320.421 101.96V101.95Z" fill="black"/>
<path fill-rule="evenodd" clip-rule="evenodd" d="M276.43 37.19C294.94 36.28 310.72 50.3 311.65 68.47C312.57 86.64 298.29 102.13 279.78 103.03C261.27 103.94 245.49 89.92 244.56 71.75C243.64 53.58 257.92 38.09 276.43 37.19Z" fill="white"/>
<mask id="mask6_89_3046" style="mask-type:luminance" maskUnits="userSpaceOnUse" x="244" y="37" width="68" height="67">
<path d="M276.43 37.19C294.94 36.28 310.72 50.3 311.65 68.47C312.57 86.64 298.29 102.13 279.78 103.03C261.27 103.94 245.49 89.92 244.56 71.75C243.64 53.58 257.92 38.09 276.43 37.19Z" fill="white"/>
</mask>
<g mask="url(#mask6_89_3046)">
<path fill-rule="evenodd" clip-rule="evenodd" d="M352.309 32.15H294.329V84.67H352.309V32.15Z" fill="#BEE5FF"/>
<path fill-rule="evenodd" clip-rule="evenodd" d="M352.45 91.09H294.46V143.61H352.45V91.09Z" fill="#BEE5FF"/>
<path fill-rule="evenodd" clip-rule="evenodd" d="M284.97 32.11H116.52V59.39H284.97V32.11Z" fill="#F07784"/>
<path fill-rule="evenodd" clip-rule="evenodd" d="M284.97 67.5H133.92V69.92H284.97V67.5Z" fill="#D8D8D8"/>
<path fill-rule="evenodd" clip-rule="evenodd" d="M284.97 76.31H116.52V78.73H284.97V76.31Z" fill="#D8D8D8"/>
<path fill-rule="evenodd" clip-rule="evenodd" d="M284.97 85.12H116.52V87.54H284.97V85.12Z" fill="#D8D8D8"/>
<path fill-rule="evenodd" clip-rule="evenodd" d="M284.97 93.93H116.52V96.35H284.97V93.93Z" fill="#D8D8D8"/>
</g>
<path d="M278.06 106.75C273.71 106.75 269.44 106.01 265.35 104.54C260.83 102.92 256.72 100.48 253.13 97.29C249.54 94.1 246.65 90.32 244.55 86.05C242.37 81.63 241.14 76.88 240.89 71.93C240.4 62.28 243.73 52.98 250.27 45.76C253.52 42.16 257.39 39.28 261.77 37.17C266.3 34.99 271.17 33.76 276.24 33.52C281.25 33.27 286.16 34 290.84 35.68C295.36 37.3 299.47 39.74 303.06 42.93C306.65 46.12 309.54 49.9 311.64 54.17C313.82 58.59 315.05 63.34 315.3 68.29C315.79 77.94 312.46 87.24 305.92 94.46C302.67 98.06 298.8 100.94 294.42 103.05C289.89 105.23 285.02 106.46 279.95 106.7C279.32 106.73 278.69 106.75 278.06 106.75ZM276.61 40.85C272.52 41.05 268.6 42.04 264.95 43.79C261.43 45.48 258.32 47.8 255.71 50.69C250.49 56.46 247.83 63.88 248.22 71.57C249.02 87.21 262.26 99.41 278.08 99.41C278.58 99.41 279.08 99.4 279.59 99.37C283.68 99.17 287.6 98.18 291.25 96.43C294.77 94.74 297.88 92.42 300.49 89.53C305.71 83.76 308.37 76.34 307.98 68.65C307.16 52.51 293.09 40.04 276.61 40.85Z" fill="#4B4B4B"/>
<path fill-rule="evenodd" clip-rule="evenodd" d="M388.28 155.82C388.65 165.04 388.191 173.8 387.961 182.69C387.811 188.62 387.21 220.95 387.12 223.86C387.1 224.6 381.39 224.6 381.34 223.65C381.2 220.91 376.991 173.59 376.491 171.65C376.261 170.79 376.001 170.91 375.881 171.65C375.501 173.87 371.271 214.73 370.321 223.72C370.271 224.24 365.611 224.18 364.921 223.91C364.511 223.75 363.441 189.38 363.451 179.34C363.451 172.22 363.321 164.31 364.101 156.18C364.121 155.92 367.641 156.98 367.981 157.06C374.771 158.52 387.851 157.45 388.271 155.84L388.28 155.82Z" fill="#00315F"/>
<path fill-rule="evenodd" clip-rule="evenodd" d="M369.5 223C369.54 224.69 370.29 227.18 369.81 228.11C369.28 229.12 365.07 228.78 363.92 228.79C363.26 228.79 359.8 228.84 359.32 228.49C359.25 228.44 359.35 228.08 359.37 228.01C360.16 225.56 363.51 226.17 364.98 224.96C365.41 224.6 365.99 223.8 366.39 222.96C366.54 222.63 368.7 222.71 369.51 223H369.5Z" fill="black"/>
<path fill-rule="evenodd" clip-rule="evenodd" d="M385.78 223.05C385.78 224.96 386.59 227.35 385.78 228.17C384.98 228.99 382.32 228.64 380.62 228.65C380.03 228.65 376.91 228.78 376.47 228.48C376.4 228.43 376.47 228.11 376.49 228.04C377.08 225.8 380.11 226.21 381.36 225.05C381.73 224.71 382.21 223.96 382.52 223.19C382.64 222.89 385.03 222.82 385.77 223.05H385.78Z" fill="black"/>
<path fill-rule="evenodd" clip-rule="evenodd" d="M375.29 116.29C374.12 113.82 373.78 111.07 373.73 107.95L368.41 109.69C368.41 109.69 368.9 114.34 368.04 117.28C367.81 118.05 370.02 118.91 371.99 118.68C373.94 118.44 375.66 117.12 375.28 116.3L375.29 116.29Z" fill="#FFA998"/>
<path fill-rule="evenodd" clip-rule="evenodd" d="M365.54 99.72C365.05 100.13 364.71 100.65 364.48 101.25C364.02 102.44 364.27 103.8 363.73 104.99C363.5 105.5 363.18 106.32 363.06 106.89C362.97 107.3 363.76 107.08 363.93 107.47C364.15 107.97 363.45 109.66 364.25 110.44C364.94 111.11 367.04 111.5 367.92 111.56C368.93 111.63 370.84 111.51 371.73 110.85C373.7 109.4 374.64 104.94 373.05 101.94C371.82 99.63 368.24 98.26 365.55 99.72H365.54Z" fill="#FFA998"/>
<path fill-rule="evenodd" clip-rule="evenodd" d="M367.41 104.29C365.68 103.65 364.41 102.17 363.56 101.09C362.74 100.04 362.46 98.5 362.51 97.53C362.51 97.43 362.56 97.06 362.6 97.09C362.93 97.38 363.22 97.6 363.54 97.82C363.97 98.12 364.44 98.38 364.92 98.59C365.16 98.69 365.41 98.79 365.66 98.86C365.66 98.86 365.7 98.87 365.69 98.86C365.64 98.82 365.6 98.79 365.55 98.76C365.09 98.44 364.65 98.1 364.29 97.66C363.99 97.29 363.77 96.86 363.61 96.41C363.61 96.39 363.55 96.23 363.55 96.23C363.81 96.17 364.93 96.59 365.41 96.55C366.41 96.48 367.34 96.11 368.31 95.88C370.15 95.44 372.32 95.62 374 96.56C374.95 97.08 376.12 98.19 375.99 99.43C375.99 99.51 375.8 99.99 375.83 100.04C375.95 100.25 376.34 100.45 376.52 100.62C377.15 101.22 377.63 101.98 377.87 102.83C378.9 106.45 375.63 111.65 371.8 111.5C369.68 111.42 368.5 110.72 367.74 108.93C367.51 108.38 367.2 107.72 367.3 106.72C367.34 106.33 367.82 106.69 368.36 106C369.08 105.07 368.59 103.69 367.41 104.28V104.29Z" fill="#560005"/>
<path fill-rule="evenodd" clip-rule="evenodd" d="M336.52 128.46C337.49 129.48 341.14 126.26 338.36 123.81C335.63 121.41 332.75 119.24 331.41 118.8C330.97 118.66 329.32 116.05 328.5 115.26C327.86 114.64 326.73 114.66 326.68 115.34C326.65 115.79 328.03 117.07 327.91 117.37C327.61 118.11 326.6 117.68 326.22 117.54C325.68 117.34 324.74 116.71 323.94 116.07C323.21 115.48 322.32 114.46 321.6 114.95C320.24 115.88 323.43 119.78 324.96 120.67C326.72 121.69 328.88 120.98 329.99 122.12C333.27 125.51 334.2 126.02 336.52 128.47V128.46Z" fill="#FFA998"/>
<path fill-rule="evenodd" clip-rule="evenodd" d="M389.09 156.32C388.94 148.86 391.82 117.02 377.65 113.93C374.04 113.14 365.71 114.27 362.94 117.25C359.84 120.57 350.06 128.15 347.6 128.21C345.03 128.28 332.36 119.16 332.36 119.16L329 122.15C329 122.15 341.49 137.02 347.54 137.01C351.98 137.01 364.04 129.4 364.28 129.67C364.3 129.69 364.67 143.6 364.44 148.27C364.24 152.35 363.74 156.51 364.19 156.88C366.97 159.15 389.14 159.08 389.09 156.32Z" fill="#E53E50"/>
</g>
<defs>
<clipPath id="clip0_89_3046">
<rect width="498.42" height="268.08" fill="white" transform="translate(0.290039)"/>
</clipPath>
</defs>
</svg>
