<svg width="608" height="318" viewBox="0 0 608 318" fill="none" xmlns="http://www.w3.org/2000/svg">
<g clip-path="url(#clip0_89_2381)">
<path d="M491.773 265.607V211.944L441.003 187.64L438.018 123.14L419.351 102.023L381.271 92.2808L370.044 73.8247C370.044 73.8247 308.102 88.5316 299.163 80.8032C290.224 73.0748 286.45 39.428 286.45 39.428L230.607 34.2213L203.784 49.8474L157.408 44.6407L119.207 96.4958H109.825L105.019 109.159L43.793 135.682L38.568 201.905L56.4884 206.943L54.2491 233.986L5.71895 253.379L0.5 290.902L144.598 297.04L141.612 308.76C141.612 308.76 260.282 322.898 348.027 316.198L352.991 304.448C352.991 304.448 462.656 310.556 526.121 304.448L534.514 298.54L498.497 289.088L491.779 265.607H491.773Z" fill="#CA5C47"/>
<path d="M485.534 289.844C485.534 295.71 406.225 300.469 308.388 300.469C210.551 300.469 131.247 295.71 131.247 289.844C131.247 283.978 210.557 279.219 308.388 279.219C406.219 279.219 485.534 283.978 485.534 289.844Z" fill="#AB4B38"/>
<path d="M289.642 298.673C310.388 298.673 327.206 297.019 327.206 294.978C327.206 292.938 310.388 291.283 289.642 291.283C268.896 291.283 252.078 292.938 252.078 294.978C252.078 297.019 268.896 298.673 289.642 298.673Z" fill="#CA5C47"/>
<path d="M133.183 122.015C135.21 119.56 137.109 116.978 138.863 114.281C140.058 112.442 141.211 110.513 141.764 108.336C142.316 106.159 142.2 103.68 141.005 101.835C138.444 102.241 135.889 102.64 133.328 103.045C133.237 102.495 133.146 101.95 133.049 101.4C137.71 101.303 141.472 97.4149 145.696 95.25C151.728 92.1539 158.689 92.6255 165.352 92.4199C173.186 92.1841 180.997 90.9263 188.564 88.6767C191.228 87.8845 193.965 86.9109 195.962 84.8307C198.498 82.2001 199.894 77.828 203.293 76.939C205.72 76.304 208.147 77.7917 210.277 79.2249C212.48 80.7064 214.683 82.188 216.886 83.6696C217.554 84.1171 218.312 84.7823 218.167 85.6228C218.039 86.3666 217.281 86.7234 216.619 86.929C213.84 87.7757 210.896 87.9934 208.038 87.5459C206.612 87.3282 205.113 86.9532 203.766 87.5156C202.303 88.1324 201.393 89.7047 200.586 91.1802C199.651 92.8916 198.686 94.7179 198.686 96.7135C198.686 98.3946 199.39 99.9911 199.494 101.666C199.803 106.655 195.106 110.114 193.182 114.65C191.465 118.701 191.853 123.938 188.916 127.04C188.103 124.682 188.862 122.076 189.505 119.657C190.761 114.922 191.574 110.048 191.914 105.131C189.341 104.811 186.671 104.502 184.219 105.397C181.221 106.486 178.982 109.207 177.07 111.959C174.091 116.258 171.548 120.927 169.515 125.843C168.835 127.488 167.937 129.405 166.299 129.641C169.539 122.602 172.78 115.563 176.02 108.524C173.824 109.836 171.627 111.148 169.43 112.454C167.239 113.761 165.012 115.085 162.585 115.72C160.157 116.355 157.457 116.228 155.345 114.777C153.986 113.839 152.626 112.321 151.067 112.745C149.483 113.18 148.943 115.297 148.627 117.05C147.316 124.482 145.126 131.727 142.128 138.542C140.884 135.488 142.243 132.011 143.299 128.879C145.047 123.702 145.981 118.205 146.054 112.69C142.637 112.188 139.476 114.752 137.182 117.576C135.301 119.893 133.711 122.469 132.133 125.039C130.943 126.968 129.863 129.296 128.443 131.025C127.563 132.102 126.404 133.777 126.404 131.485C126.404 128.576 131.532 123.999 133.183 122.003V122.015Z" fill="#9C2622"/>
<path d="M206.145 76.1226C206.369 74.8648 206.758 73.5586 207.65 72.7301C207.765 72.6273 207.892 72.5245 208.044 72.5185C208.348 72.5124 208.524 72.8813 208.627 73.1897C208.882 73.9638 209.118 74.8043 208.906 75.5905C208.724 76.2678 208.238 76.7878 207.777 77.2777C207.146 77.9428 206.527 78.6806 205.829 79.2491C205.568 78.3359 205.975 77.0781 206.145 76.1166V76.1226Z" fill="#9C2622"/>
<path d="M198.067 75.784C197.582 75.4393 197.024 74.8769 197.236 74.2843C197.309 74.0726 197.479 73.9093 197.667 73.8186C198.517 73.3953 199.421 74.2601 200.003 75.0583C200.792 76.1408 201.763 77.3381 202.237 78.608C200.798 78.0275 199.372 76.7153 198.067 75.784Z" fill="#9C2622"/>
<path d="M266.272 255.986C266.272 255.986 273.269 260.878 271.309 265.897C269.343 270.916 252.272 283.761 275.241 293.799H304.097C304.097 293.799 328.286 285.599 314.292 259.656C314.292 259.656 315.027 270.299 303.12 274.339C303.12 274.339 324.736 241.666 285.685 230.896C285.685 230.896 295.631 239.948 293.052 246.927C290.473 253.899 284.702 253.506 279.635 262.777C279.635 262.777 275.981 255.738 266.278 255.986H266.272Z" fill="#F3E190"/>
<path d="M311.3 271.993C311.3 271.993 309.31 281.166 293.489 281.759C285.8 286.095 281.298 289.844 281.298 289.844C281.795 282.412 274.179 274.569 274.179 274.569C274.719 278.536 270.453 282.896 270.453 282.896C266.927 280.622 266.381 275.821 266.375 273.093C262.424 279.134 259.9 287.093 275.241 293.793H304.097C304.097 293.793 308.011 292.463 311.78 289.191C314.808 279.34 311.3 271.987 311.3 271.987V271.993Z" fill="#FFB157"/>
<path d="M277.323 272.138C277.323 272.138 278.919 275.929 275.478 278.626C272.037 281.317 266.15 289.518 277.693 293.799H298.198C298.198 293.799 306.549 290.739 308.394 279.479C308.394 279.479 303.484 286.76 292.797 287.099C292.797 287.099 305.444 277.465 295.747 260.787C295.747 260.787 295.601 265.77 291.007 269.447C286.413 273.117 283.221 279.479 282.481 283.277C282.481 283.277 285.218 275.415 277.323 272.144V272.138Z" fill="#EB5654"/>
<path d="M305.274 288.925C305.274 288.925 295.813 291.84 292.033 291.791V295.002H307.283L305.274 288.925Z" fill="#AB4B38"/>
<path d="M276.425 294.96C276.425 294.96 286.838 294.93 290.619 294.978L291.013 291.434L274.416 288.877L276.425 294.954V294.96Z" fill="#AB4B38"/>
<path d="M284.417 286.186C284.417 286.186 288.24 290.116 290.655 290.068L293.301 294.972L282.208 293.497L284.423 286.186H284.417Z" fill="#AB4B38"/>
<path d="M293.459 286.004C293.459 286.004 291.013 289.233 287.487 291.434L287.767 295.135C287.767 295.135 294.369 295.401 297.191 292.094L293.465 286.004H293.459Z" fill="#AB4B38"/>
<path d="M309.704 289.632C310.257 290.382 307.283 295.008 307.283 295.008L305.274 288.931C305.274 288.931 308.667 288.223 309.704 289.632Z" fill="#F3E190"/>
<path d="M271.994 294.253C271.442 293.503 274.416 288.877 274.416 288.877L276.425 294.954C276.425 294.954 273.032 295.662 271.994 294.253Z" fill="#F3E190"/>
<path d="M279.38 287.909C279.028 288.659 282.208 293.503 282.208 293.503L284.423 286.192C284.423 286.192 280.041 286.5 279.38 287.909Z" fill="#F3E190"/>
<path d="M292.288 288.877C292.288 291.084 294.29 292.874 295.82 292.874C297.349 292.874 297.828 291.084 297.828 288.877C297.828 286.669 297.209 284.879 295.68 284.879C294.151 284.879 292.288 286.669 292.288 288.877Z" fill="#F3E190"/>
<path d="M278.561 176.313C277.256 177.958 275.957 179.597 274.653 181.242C272.45 184.017 270.065 186.926 266.715 188.087L278.561 176.313Z" fill="#9C2622"/>
<path d="M277.031 184.356C276.509 182.602 275.775 181 275.532 179.101C275.132 175.993 275.326 172.225 277.996 170.568C279.07 169.903 280.369 169.716 281.631 169.613C284.174 169.401 286.741 169.456 289.272 169.776C290.437 169.921 291.626 170.127 292.767 169.873C294.503 169.492 295.838 168.149 297.015 166.825C301.912 161.316 304.965 154.338 310.857 149.736C311.774 149.022 312.812 148.357 313.977 148.315C315.991 148.236 317.581 150.014 318.51 151.804C321.823 158.208 324.415 168.252 331.017 172.129C331.958 172.685 333.178 172.346 334.227 172.661C335.896 173.163 336.624 175.074 337.116 176.743C338.129 180.177 339.143 183.612 340.156 187.041C340.205 187.198 340.247 187.38 340.175 187.525C340.071 187.724 339.804 187.773 339.58 187.785C337.061 187.978 334.264 188.093 332.316 186.497C331.454 185.789 330.817 184.779 329.816 184.29C327.267 183.044 325.264 185.439 324.026 187.283C322.552 189.472 322.655 191.304 322.837 193.947C323.055 197.067 323.577 200.157 324.057 203.254C324.409 205.527 324.063 209.712 325.064 211.696C322.964 207.511 321.259 203.133 319.754 198.7C318.759 195.761 317.636 190.18 313.607 193.082C311.561 194.558 311.3 197.043 310.76 199.371C309.48 204.923 308.982 210.656 309.292 216.346C308.133 209.658 306.67 202.824 302.908 197.17C300.923 194.189 292.603 194.703 291.056 197.539C289.745 199.94 290.249 205.068 290.097 207.777C289.909 211.121 289.836 214.471 289.878 217.821C289.175 216.243 289.12 214.459 288.677 212.79C287.833 209.621 285.6 206.949 284.787 203.768C284.441 202.407 284.447 200.236 283.349 199.196C281.607 197.545 279.817 198.434 278.84 200.151C276.097 204.971 276.097 210.849 273.572 215.771C275.466 207.59 276.704 199.256 277.268 190.875C277.408 188.831 277.669 186.557 277.104 184.568C277.086 184.495 277.062 184.423 277.044 184.356H277.031Z" fill="#9C2622"/>
<path d="M325.938 143.628C323.796 146.96 322.406 150.77 321.89 154.7C321.696 156.188 321.629 157.706 321.86 159.194C322.108 160.76 322.685 162.259 323.255 163.741C324.069 165.833 324.876 167.932 325.689 170.024C325.95 170.695 327.898 174.42 326.162 173.876C324.154 173.247 322.782 165.815 322.467 164.031C321.277 157.41 322.109 149.361 325.938 143.634V143.628Z" fill="#9C2622"/>
<path d="M338.026 159.447C338.888 154.071 338.609 148.569 337.796 143.18C338.263 146.277 339.895 149.131 340.205 152.384C340.52 155.734 340.278 159.139 339.507 162.417C338.748 165.634 337.48 168.73 335.72 171.53C335.314 172.177 333.548 175.412 332.522 174.916C331.187 174.269 333.384 171.887 333.754 171.3C335.987 167.702 337.365 163.608 338.032 159.441L338.026 159.447Z" fill="#9C2622"/>
<path d="M313.224 161.092C312.708 160.863 312.156 160.627 311.604 160.742C311.052 160.857 310.584 161.491 310.857 161.981C311.246 162.253 311.822 162.223 312.18 161.909C312.538 161.594 312.642 161.026 312.417 160.609L313.23 161.086L313.224 161.092Z" fill="#CA5C47"/>
<path d="M317.885 166.589C317.818 166.583 317.745 166.571 317.678 166.565C317.509 166.547 317.32 166.529 317.175 166.62C316.987 166.74 316.956 166.994 316.938 167.218C316.908 167.629 316.908 168.113 317.235 168.361C317.484 168.555 317.848 168.53 318.128 168.379C318.407 168.234 318.613 167.986 318.807 167.738C319.026 167.454 319.244 167.079 319.08 166.759C318.898 166.408 318.401 166.402 318.006 166.45L317.885 166.583V166.589Z" fill="#CA5C47"/>
<path d="M313.376 167.799C312.933 167.69 312.466 167.708 312.035 167.847C311.804 167.92 311.561 168.065 311.525 168.301C311.483 168.567 311.737 168.791 311.992 168.857C312.551 168.996 313.182 168.53 313.206 167.956L313.37 167.799H313.376Z" fill="#CA5C47"/>
<path d="M318.182 174.021C317.685 174.269 317.12 174.602 317.06 175.152C316.999 175.703 317.478 176.162 317.976 176.404C318.152 176.489 318.346 176.561 318.54 176.537C318.783 176.507 318.983 176.344 319.141 176.168C319.572 175.696 319.851 175.08 319.912 174.445C319.487 174.348 319.038 174.39 318.637 174.566L318.176 174.021H318.182Z" fill="#CA5C47"/>
<path d="M310.766 175.424C310.536 175.195 310.099 175.455 310.081 175.781C310.062 176.102 310.317 176.38 310.59 176.549C310.754 176.652 310.936 176.724 311.131 176.743C311.507 176.773 311.871 176.543 312.083 176.235C312.296 175.926 312.381 175.539 312.405 175.164C312.411 175.061 312.417 174.959 312.381 174.862C312.29 174.62 311.974 174.529 311.725 174.596C311.476 174.662 311.276 174.844 311.082 175.019L310.766 175.43V175.424Z" fill="#CA5C47"/>
<path d="M307.265 167.762C307.065 167.69 306.858 167.623 306.652 167.654C306.446 167.684 306.239 167.853 306.245 168.059C306.251 168.301 306.5 168.446 306.719 168.543C306.955 168.651 307.198 168.76 307.435 168.875C307.404 168.543 307.192 168.234 306.895 168.083L307.259 167.769L307.265 167.762Z" fill="#CA5C47"/>
<path d="M607.5 289.088C607.5 289.088 582.862 200.442 561.956 181.314L522.383 163.015C522.383 163.015 469.374 101.926 448.468 50.5912L429.801 38.6842L419.351 20.5848C419.351 20.5848 328.262 2.23143 246.883 0L239.625 8.92572C239.625 8.92572 149.076 18.8492 138.62 20.5848L109.825 96.4897H119.207L157.408 44.6347L203.784 49.8413L230.607 34.2153L286.45 39.4219C286.45 39.4219 290.218 73.0627 299.163 80.7971C308.102 88.5255 370.044 73.8186 370.044 73.8186L381.271 92.2748L419.351 102.017L438.018 123.134L441.003 187.634L491.773 211.937V265.601L498.491 289.082L534.508 298.534L538.058 296.036L607.494 289.082L607.5 289.088Z" fill="#F0786A"/>
<path d="M42.4943 280.181L59.8564 249.811L118.655 239.344L124.565 261.664L130.27 266.332L137.133 287.334L89.8168 283.24L68.2553 287.582L42.4943 280.181Z" fill="#F0786A"/>
<path d="M20.1014 269.9L16.7394 283.748L42.4943 284.305L39.1384 267.034L29.6169 269.9H20.1014Z" fill="#F0786A"/>
<path d="M261.241 102.767C259.876 104.152 259.548 106.45 260.476 108.161C261.447 109.945 263.644 111.324 263.359 113.331C263.08 115.278 260.665 116.028 258.698 116.125C255.039 116.3 251.349 115.672 247.957 114.293C247.441 115.133 247.945 116.3 248.776 116.845C249.608 117.389 250.645 117.468 251.635 117.516C255.257 117.703 258.886 117.746 262.515 117.631C264.269 128.226 262.224 139.044 260.191 149.591C262.139 145.297 263.468 140.725 264.118 136.057C264.257 135.053 264.385 134.001 264.973 133.172C265.562 132.344 266.788 131.872 267.625 132.447C268.05 132.743 268.287 133.233 268.499 133.704C270.817 138.832 272.723 144.148 274.191 149.578C274.956 138.403 264.828 128.165 267.018 117.177C270.411 116.935 273.827 117.02 277.207 117.437C277.96 116.512 277.019 115.037 275.86 114.758C274.695 114.48 273.499 114.928 272.334 115.182C269.616 115.78 265.974 114.577 265.847 111.801C265.786 110.453 266.612 109.231 267.449 108.167C271.691 102.785 265.623 98.3402 261.253 102.767H261.241Z" fill="#9C2622"/>
<path d="M132.115 198.954C131.459 198.833 130.773 198.682 130.258 198.253C129.693 197.787 129.426 197.061 129.208 196.366C128.437 193.844 128.085 191.195 128.176 188.565C133.098 187.906 137.946 186.708 142.607 185.003C139.002 184.646 135.319 185.094 131.908 186.303C130.16 186.926 127.897 187.622 126.714 186.2C125.087 184.253 127.806 181.574 127.933 179.047C128.043 176.864 126.01 175.025 123.855 174.638C121.701 174.251 119.504 174.971 117.495 175.854C116.531 176.277 115.547 176.767 114.91 177.601C113.836 179.004 114.055 181.109 115.098 182.53C116.142 183.951 117.853 184.767 119.583 185.13C121.379 185.511 123.746 185.904 124.007 187.712C124.104 188.402 123.813 189.091 123.412 189.666C122.108 191.528 119.668 192.387 117.392 192.199C115.123 192.012 113.011 190.911 111.202 189.526C110.456 188.952 109.722 188.329 108.915 187.851C110.79 182.868 112.204 177.644 113.496 172.739C113.891 171.252 114.297 169.698 115.329 168.549C116.361 167.4 118.218 166.831 119.48 167.726C119.565 164.709 119.322 161.685 118.77 158.716C116.67 160.965 114.777 163.414 113.126 166.009C113.794 166.263 114.455 166.511 115.123 166.765C112.883 172.491 110.644 178.218 108.405 183.945C108.144 184.616 107.585 185.753 106.936 187.114C105.619 187.011 104.175 187.694 103.963 188.97C104.527 189.248 105.103 189.52 105.686 189.793C104.09 193.324 102.621 197.225 103.659 198.494C105.249 196.088 106.578 193.457 107.749 190.724C112.956 192.961 118.582 194.449 123.546 192.121C124.159 191.836 124.844 191.486 125.469 191.728C129.183 193.161 127.211 200 125.961 202.135C123.406 206.501 122.775 210.825 121.222 215.475C122.666 210.698 124.844 206.138 127.648 202.002C128.121 201.306 128.649 200.593 129.426 200.272C130.264 199.928 131.21 200.109 132.096 200.303C137.849 201.566 143.523 203.229 149.052 205.261C145.235 200.411 138.171 200.091 132.09 198.954H132.115Z" fill="#9C2622"/>
<path d="M321.714 52.0788C325.021 51.1778 328.335 50.3674 331.667 49.6176C334.992 48.8375 338.33 48.1602 341.667 47.4648C345.011 46.8298 348.349 46.1162 351.699 45.5478C355.055 44.9612 358.398 44.3202 361.76 43.8062L360.589 44.3807C363.684 41.3812 366.761 38.3576 369.929 35.4308L370.699 34.7172L371.701 34.8381C378.995 35.715 386.277 36.7188 393.535 37.898C397.17 38.4544 400.793 39.1196 404.41 39.7848C408.027 40.4681 411.644 41.1877 415.242 42.0404C411.541 42.0525 407.857 41.9315 404.18 41.7804C400.502 41.605 396.824 41.4296 393.159 41.1575C385.822 40.6677 378.504 39.9904 371.197 39.1982L372.969 38.6056C369.898 41.6292 366.731 44.5621 363.593 47.5131L363.089 47.9848L362.422 48.0876C359.06 48.5956 355.674 48.9766 352.3 49.412C348.925 49.8655 345.533 50.1739 342.147 50.561C338.755 50.8875 335.362 51.2322 331.958 51.4801C328.559 51.7523 325.149 51.9639 321.72 52.0849L321.714 52.0788Z" fill="#CA5C47"/>
<path d="M419.351 90.0252C423.896 90.0313 428.241 90.763 432.52 91.6943C434.668 92.1297 436.774 92.7223 438.873 93.327C440.973 93.9257 443.036 94.6574 445.094 95.4133L443.328 95.7701C444.105 95.2017 444.942 94.7058 445.749 94.1736C446.55 93.6415 447.394 93.1517 448.237 92.6679C449.924 91.6943 451.654 90.7751 453.517 90.0192C452.394 91.6822 451.138 93.1819 449.833 94.6272C449.184 95.3468 448.535 96.0725 447.843 96.7437C447.157 97.421 446.502 98.1406 445.779 98.7756L445.112 99.3682L444.007 99.1324C441.865 98.6788 439.723 98.2071 437.629 97.5964C435.53 96.9977 433.436 96.3748 431.379 95.6068C427.258 94.1253 423.198 92.432 419.345 90.0252H419.351Z" fill="#CA5C47"/>
<path d="M460.229 170.314C463.682 169.752 467.135 169.413 470.588 169.105C474.041 168.797 477.494 168.609 480.947 168.422L481.948 168.367L482.585 169.359C484.982 173.078 487.331 176.833 489.582 180.637L487.215 179.591C490.286 178.889 493.387 178.351 496.47 177.722C499.571 177.166 502.666 176.604 505.779 176.132C508.892 175.642 512.018 175.219 515.155 174.844C518.299 174.505 521.442 174.154 524.628 174.021C521.654 175.176 518.638 176.12 515.622 177.069C512.6 177.982 509.566 178.847 506.52 179.645C503.473 180.456 500.415 181.187 497.35 181.919C494.273 182.578 491.215 183.328 488.126 183.915L486.542 184.217L485.753 182.868C483.526 179.047 481.39 175.17 479.308 171.27L480.947 172.207C477.494 172.02 474.041 171.832 470.588 171.524C467.135 171.221 463.682 170.877 460.229 170.314Z" fill="#CA5C47"/>
<path d="M518.468 263.466C522.844 263.436 527.189 263.611 531.522 263.883C535.855 264.143 540.182 264.488 544.49 264.942C548.805 265.341 553.102 265.897 557.398 266.429C561.689 267.034 565.979 267.596 570.251 268.322L567.939 270.118C568.309 267.693 568.625 265.262 569.056 262.843C569.462 260.424 569.857 257.999 570.336 255.593L570.555 254.504L571.459 254.431C575.798 254.093 580.149 253.857 584.531 253.827C580.331 255.072 576.095 256.113 571.847 257.044L572.97 255.889C572.891 258.344 572.727 260.793 572.569 263.242C572.442 265.691 572.199 268.134 572.011 270.578L571.853 272.579L569.699 272.368C565.384 271.95 561.094 271.364 556.797 270.819C552.513 270.203 548.223 269.61 543.95 268.866C539.672 268.177 535.412 267.366 531.158 266.484C526.904 265.613 522.668 264.639 518.456 263.46L518.468 263.466Z" fill="#CA5C47"/>
<path d="M151.922 112.146L150.806 112.981V117.631L154.35 117.075V115.587L151.922 112.146Z" fill="#51192B"/>
<path d="M184.686 183.83L186.962 222.871L190.955 291.144C190.955 291.144 197.758 288.949 203.839 266.556C206.181 257.933 207.516 242.289 208.123 223.972C208.123 223.972 209.325 206.483 209.076 200.557C208.851 195.084 208.645 189.557 208.639 184.247L184.68 183.836L184.686 183.83Z" fill="#F79885"/>
<path d="M236.591 267.977C237.64 249.328 225.795 195.029 223.616 185.154L201.041 183.763C201.399 194.467 209.391 224.365 209.391 224.365C215.023 243.649 222.566 266.145 229.047 291.144C229.047 291.144 235.723 283.337 236.591 267.971V267.977Z" fill="#F79885"/>
<path d="M194.566 284.305C194.232 284.166 192.77 287.619 190.53 289.439C188.103 291.41 184.183 292.747 183.885 292.91C183.291 293.231 183.491 293.872 184.171 293.872H194.25C195.07 293.872 195.792 293.218 195.64 292.36C195.488 291.477 195.221 291.211 195.13 290.104C195.1 289.735 194.857 284.42 194.56 284.305H194.566Z" fill="#F79885"/>
<path d="M230.571 284.305C229.885 284.305 229.594 286.712 227.603 289.626C225.904 292.118 224.272 292.747 223.968 292.91C223.373 293.231 223.574 293.872 224.253 293.872H230.935C231.754 293.872 232.494 293.212 232.324 292.36C231.869 290.05 231.42 284.305 230.565 284.305H230.571Z" fill="#F79885"/>
<path d="M228.04 142.824C233.866 145.962 242.095 167.932 242.125 175.678C242.18 189.823 205.192 187.652 194.256 179.373C194.256 179.373 216.006 172.794 226.863 167.992C226.863 167.992 216.813 154.713 212.48 142.606C210.611 137.381 225.825 141.771 228.04 142.824Z" fill="#F0786A"/>
<path d="M184.686 183.83C184.686 183.83 183.048 144.148 191.162 138.01C199.281 131.872 227.281 139.129 230.079 144.982C232.877 150.842 223.616 185.154 223.616 185.154C223.616 185.154 212.086 189.472 184.686 183.83Z" fill="#F79885"/>
<path d="M217.566 127.899C219.077 126.684 223.027 122.68 223.203 118.344C223.379 114.009 213.846 111.094 211.17 112.067C206.309 113.833 203.299 128.588 205.271 130.1C205.781 130.487 210.909 133.251 217.566 127.893V127.899Z" fill="#F79885"/>
<path d="M205.271 130.106C205.514 130.3 206.873 131.056 208.979 131.146L209.525 127.778C207.176 130.487 205.271 130.106 205.271 130.106Z" fill="#F0786A"/>
<path d="M210.526 117.123C210.526 117.123 208.675 122.825 205.562 121.556C205.562 121.556 197.958 126.992 204.106 125.849C204.106 125.849 198.589 132.422 204.47 129.465C200.173 136.813 207.971 135.132 210.478 131.364C210.478 131.364 203.918 131.001 211.115 119.699L210.526 117.117V117.123Z" fill="#51192B"/>
<path d="M218.13 128.111C216.237 132.307 218.185 138.851 218.185 138.851C215.284 143.144 207.352 139.026 203.948 137.665C203.948 137.665 206.521 134.091 207.68 130.995C211.133 121.761 221.559 120.515 218.13 128.117V128.111Z" fill="#F79885"/>
<path d="M210.526 117.123C210.526 117.123 204.664 108.149 208.105 104.672C211.552 101.194 215.818 110.15 215.818 110.15C215.818 110.15 224.381 106.262 226.796 108.439C229.211 110.616 223.501 114.311 223.501 114.311C223.501 114.311 234.843 119.741 224.132 120.02C229.594 123.146 227.7 132.991 220.946 125.281C221.401 131.951 218.64 139.685 214.501 128.183C207.122 140.526 210.52 117.123 210.52 117.123H210.526Z" fill="#51192B"/>
<path d="M232.136 204.415C231.39 197.346 229.26 188.293 224.472 185.68C224.472 185.68 228.392 184.979 227.178 183.364C225.965 181.75 190.682 177.208 187.357 177.124C184.031 177.039 177.762 176.9 183.096 182.04C178.29 191.407 179.419 202.31 181.464 209.029C182.392 209.029 183.011 210.178 183.916 209.966C184.486 209.827 184.656 209.119 184.741 208.545C185.123 206.09 185.997 203.707 187.308 201.591C187.569 201.173 187.86 200.75 188.303 200.538C189.414 200.012 190.609 201.077 191.253 202.123C191.896 203.163 192.606 204.433 193.832 204.536C195.064 204.639 196.01 203.453 196.441 202.298C196.872 201.149 197.072 199.843 197.922 198.954C199.105 202.83 200.938 206.507 203.311 209.791C204.622 211.599 206.582 213.467 208.76 212.96C209.458 212.796 210.174 212.397 210.836 212.657C211.248 212.82 211.528 213.207 211.782 213.57C213.014 215.348 214.246 217.126 215.472 218.91C216.17 219.92 217.007 221.027 218.233 221.202C219.459 221.383 220.63 220.513 221.262 219.454C221.893 218.39 222.129 217.15 222.487 215.971C223.149 213.818 224.272 211.804 225.758 210.111C226.875 210.746 227.797 211.72 228.362 212.869C228.938 210.752 229.521 208.642 230.097 206.525C230.449 205.243 230.789 204.378 232.124 204.433L232.136 204.415Z" fill="#9C2622"/>
<path d="M224.478 186.273C224.478 186.273 224.441 186.273 224.423 186.273L183.048 182.633C182.72 182.602 182.477 182.312 182.502 181.986C182.532 181.659 182.836 181.411 183.151 181.441L224.526 185.082C224.854 185.112 225.097 185.402 225.073 185.729C225.042 186.037 224.781 186.273 224.478 186.273Z" fill="#51192B"/>
<path d="M197.989 149.548C197.989 149.548 193.983 163.027 184.686 167.539L185.354 157.01L197.983 149.548H197.989Z" fill="#F0786A"/>
<path d="M198.322 148.55C196.192 156.944 178.327 161.207 170.17 161.207C152.881 161.207 147.947 129.804 156.449 118.205C156.449 118.205 164.624 134.841 169.891 146.107C169.891 146.107 182.866 141.324 195.531 136.553C200.999 134.497 199.39 146.216 198.322 148.55Z" fill="#F79885"/>
<path d="M156.589 124.392C156.037 124.519 154.993 122.547 154.993 122.547C154.993 122.547 150.15 122.07 148.967 120.908C147.784 119.747 150.187 116.18 150.187 116.18C150.187 116.18 149.337 114.904 149.634 114.504C149.932 114.111 152.007 114.825 153.488 115.708C153.488 115.708 153.524 113.724 154.477 113.948C155.157 114.105 154.665 115.883 156.88 118.641C157.53 119.632 157.748 124.132 156.589 124.398V124.392Z" fill="#F79885"/>
<path d="M392.352 240.982C392.352 240.982 366.19 284.946 384.287 284.946H427.471C429.431 284.946 419.363 275.966 417.658 276.691C416.092 277.357 414.605 279.951 414.605 279.951C414.605 279.951 406.631 271.225 397.522 270.826C397.522 270.826 423.162 262.964 418.064 241.406L392.352 240.988V240.982Z" fill="#F0786A"/>
<path d="M397.522 270.819C397.522 270.819 394.694 270.42 392.704 270.819L404.283 267.82C402.232 269.078 399.986 270.088 397.528 270.819H397.522Z" fill="#F0786A"/>
<path d="M363.454 273.535C362.64 273.535 362.282 276.401 359.916 279.878C357.889 282.847 355.941 283.597 355.583 283.791C354.873 284.172 355.115 284.94 355.922 284.94H363.89C364.867 284.94 365.747 284.154 365.547 283.138C365.007 280.386 364.467 273.535 363.447 273.535H363.454Z" fill="#F79885"/>
<path d="M401.431 240.099C401.431 240.099 407.092 270.819 388.322 264.506C374.365 259.807 366.682 252.387 366.682 252.387C366.682 252.387 371.276 274.883 363.011 282.11C363.011 282.11 352.888 266.151 349.29 251.341C347.36 243.413 347.305 235.8 351.675 231.156C354.612 228.041 362.27 229.874 371.458 232.655C376.768 234.246 382.588 236.187 388.322 237.65C403.548 241.569 401.431 240.099 401.431 240.099Z" fill="#F79885"/>
<path d="M366.682 252.381L359.794 246.51C359.794 246.51 366.366 256.415 367.823 261.603C367.823 261.603 367.447 255.357 366.682 252.381Z" fill="#F0786A"/>
<path d="M371.458 232.655C371.458 232.655 352.597 233.351 349.29 251.341C347.36 243.413 347.305 235.8 351.675 231.156C354.612 228.041 362.27 229.874 371.458 232.655Z" fill="#F0786A"/>
<path d="M412.906 220.579C412.906 220.579 416.638 230.037 418.064 241.4C418.064 241.4 392.564 250.694 377.326 232.964L372.496 222.865C372.496 222.865 399.586 193.427 412.906 220.579Z" fill="#F79885"/>
<path d="M374.165 189C375.063 187.38 377.108 182.409 375.7 178.502C374.286 174.596 364.777 175.448 362.756 177.275C359.09 180.589 361.773 194.751 364.066 195.38C364.655 195.543 370.202 196.142 374.165 189Z" fill="#F79885"/>
<path d="M364.073 195.386C364.358 195.465 365.839 195.652 367.738 194.975L366.998 191.794C365.899 195.042 364.073 195.386 364.073 195.386Z" fill="#F0786A"/>
<path d="M374.086 187.628C375.87 191.655 381.787 194.461 381.787 194.461C382.994 199.269 374.972 202.25 371.822 203.798C371.822 203.798 370.918 199.686 369.449 196.88C365.068 188.523 370.851 180.335 374.086 187.628Z" fill="#F79885"/>
<path d="M360.972 181.496C360.972 181.496 351.62 182.832 353.41 178.508C354.278 176.41 357.318 175.261 360.213 174.638C348.464 162.078 366.178 173.9 366.178 173.9C366.178 173.9 372.356 167.369 375.287 168.434C378.218 169.492 374.498 174.826 374.498 174.826C374.498 174.826 386.52 175.551 377.126 179.657C383.097 180.462 384.997 189.865 376.21 185.469C381.404 188.269 387.103 199.91 376.895 189.841C382.636 200.962 375.955 201.56 370.366 189.557C368.952 203.302 363.575 199.976 365.857 188.232C357.877 201.875 360.965 181.508 360.965 181.508L360.972 181.496Z" fill="#51192B"/>
<path d="M416.274 225.151C416.274 225.151 412.906 202.576 396.685 196.172C380.458 189.768 366.585 195.344 361.633 202.879C355.819 211.732 371.889 223.324 373.728 233.085C374.256 233.321 374.747 233.369 375.287 233.163C375.603 231.271 375.918 229.378 376.228 227.485C377.484 227.805 378.261 229.19 379.529 229.462C381.107 229.801 382.478 228.235 382.946 226.693C383.413 225.151 383.413 223.439 384.25 222.061C385.507 221.274 386.714 223.149 388.062 223.766C389.518 224.431 391.272 223.451 392.134 222.109C392.995 220.766 393.244 219.134 393.736 217.616C394.227 216.098 395.113 214.538 396.624 214.012C398.724 215.203 398.293 218.299 399.203 220.525C400.229 223.046 402.966 224.346 405.472 225.423C405.921 223.373 407.014 220.809 409.113 220.978C410.315 221.075 411.201 222.103 411.868 223.101C412.536 224.098 413.191 225.217 414.296 225.689C415.4 226.161 416.371 226.348 416.268 225.151H416.274Z" fill="#FFB157"/>
<path d="M375.506 234.367C386.884 230.496 409.629 230.442 419.642 235.068C420.789 235.594 422.246 237.203 419.642 240.099C419.642 240.099 425.456 258.247 403.415 270.148C401.752 270.094 400.095 269.791 398.433 269.737C398.19 269.731 397.923 269.713 397.729 269.568C397.176 269.144 397.686 268.292 398.172 267.79C398.651 267.288 399.009 266.296 398.354 266.048C398.056 265.933 397.729 266.09 397.45 266.242C395.332 267.342 393.038 268.11 390.683 268.497C390.883 267.391 391.084 266.284 391.284 265.183C391.375 264.681 391.46 264.125 391.205 263.684C390.804 262.976 389.815 262.928 389.008 262.994C386.289 263.224 383.601 263.835 381.052 264.802C380.3 265.087 379.535 265.407 378.728 265.443C377.921 265.48 377.041 265.165 376.653 264.458C376.325 263.853 376.374 263.031 375.852 262.589C374.984 261.857 373.412 262.837 372.593 262.051C372.15 261.628 372.21 260.872 372.556 260.364C372.902 259.862 373.461 259.547 374.001 259.257C375.821 258.265 377.642 257.274 379.511 256.373C379.044 255.641 378.582 254.915 378.115 254.183C377.939 253.905 377.751 253.579 377.836 253.258C377.945 252.871 378.382 252.702 378.765 252.581C381.046 251.879 383.328 251.184 385.61 250.483C386.302 250.271 387.163 249.787 386.981 249.086C386.896 248.753 386.587 248.529 386.296 248.342C385.209 247.665 384.032 247.138 382.806 246.782C382.879 246.02 383.51 245.445 383.983 244.841C384.457 244.236 384.778 243.311 384.263 242.742C383.383 241.775 381.277 243.038 380.621 241.902C380.464 241.623 380.47 241.285 380.445 240.964C380.239 238.11 377.878 235.975 375.5 234.367H375.506Z" fill="#FFB157"/>
<path d="M322.746 199.656L321.969 200.774L323.425 205.074L326.526 203.453L326.059 202.081L322.746 199.656Z" fill="#51192B"/>
<path d="M370.815 213.867C370.815 220.434 361.129 235.891 353.592 238.424C337.62 243.794 324.585 217.205 328.814 203.846C328.814 203.846 339.641 214.671 348.033 223.445C348.033 223.445 359.794 203.647 363.806 203.066C368.836 202.334 370.809 211.369 370.809 213.867H370.815Z" fill="#F79885"/>
<path d="M330.884 209.519C330.416 209.803 328.832 208.309 328.832 208.309C328.832 208.309 324.208 209.373 322.752 208.666C321.295 207.958 322.4 203.919 322.4 203.919C322.4 203.919 321.216 203 321.368 202.546C321.52 202.087 323.662 202.105 325.301 202.461C325.301 202.461 324.718 200.617 325.665 200.526C326.344 200.46 326.441 202.256 329.354 204.118C330.265 204.832 331.873 208.92 330.884 209.525V209.519Z" fill="#F79885"/>
<path d="M419.642 240.789C419.545 240.789 419.442 240.765 419.351 240.722C419.193 240.65 403.391 233.399 376.701 234.681C376.349 234.742 375.997 234.409 375.979 234.028C375.961 233.647 376.252 233.327 376.634 233.308C403.688 231.996 419.776 239.404 419.933 239.477C420.279 239.64 420.425 240.045 420.261 240.39C420.146 240.638 419.897 240.783 419.636 240.783L419.642 240.789Z" fill="#AB4B38"/>
</g>
<defs>
<clipPath id="clip0_89_2381">
<rect width="607" height="318" fill="white" transform="translate(0.5)"/>
</clipPath>
</defs>
</svg>
